<svg width="36" height="36" viewBox="0 0 36 36" fill="none" xmlns="http://www.w3.org/2000/svg">
<circle cx="18" cy="18" r="18" fill="#A257FF"/>
<g clip-path="url(#clip0_4110_14708)">
<path d="M23.4002 21.1602C22.5002 21.1602 21.6362 21.0162 20.8298 20.7498C20.5778 20.6706 20.297 20.7282 20.0954 20.9226L18.5114 22.5066C16.4738 21.4698 14.8034 19.8066 13.7666 17.7618L15.3506 16.1706C15.5522 15.9834 15.6098 15.7026 15.5306 15.4506C15.2642 14.6442 15.1202 13.7802 15.1202 12.8802C15.1202 12.4842 14.7962 12.1602 14.4002 12.1602H11.8802C11.4842 12.1602 11.1602 12.4842 11.1602 12.8802C11.1602 19.641 16.6394 25.1202 23.4002 25.1202C23.7962 25.1202 24.1202 24.7962 24.1202 24.4002V21.8802C24.1202 21.4842 23.7962 21.1602 23.4002 21.1602ZM24.1202 14.3202H21.9602V12.1602H20.5202V14.3202H18.3602V15.7602H20.5202V17.9202H21.9602V15.7602H24.1202V14.3202Z" fill="white"/>
</g>
<defs>
<clipPath id="clip0_4110_14708">
<rect width="17.28" height="17.28" fill="white" transform="translate(9 10)"/>
</clipPath>
</defs>
</svg>
