<svg width="32" height="32" viewBox="0 0 32 32" fill="none" xmlns="http://www.w3.org/2000/svg">
<circle cx="16" cy="16" r="16" fill="#233F80"/>
<path d="M20.091 16.3636C20.1837 16.3636 20.2737 16.3582 20.3637 16.3472V19.909C20.3637 20.3603 19.9969 20.7272 19.5454 20.7272L10.8182 20.7271C10.3669 20.7271 10 20.3604 10 19.9089V14.4544C10 14.0031 10.3668 13.6362 10.8182 13.6362H17.6527C17.6417 13.7261 17.6363 13.8162 17.6363 13.9089C17.6363 14.4884 17.8382 15.0202 18.1735 15.4402L15.7599 17.8538C15.4408 18.173 14.9212 18.173 14.6022 17.8538L11.556 14.8076C11.4496 14.7012 11.2764 14.7012 11.17 14.8076C11.0637 14.9139 11.0637 15.0871 11.17 15.1935L14.2165 18.24C14.4825 18.5059 14.8316 18.6382 15.1807 18.6382C15.5298 18.6382 15.8788 18.5059 16.1448 18.24L18.5584 15.8263C18.9796 16.1617 19.5115 16.3636 20.091 16.3636L20.091 16.3636ZM20.091 12C19.0383 12 18.1819 12.8564 18.1819 13.909C18.1819 14.9617 19.0383 15.8181 20.091 15.8181C21.1436 15.8181 22 14.9617 22 13.909C22 12.8564 21.1436 12 20.091 12Z" fill="#9CD8FD"/>
</svg>
