<svg width="21" height="16" viewBox="0 0 21 16" fill="none" xmlns="http://www.w3.org/2000/svg">
<mask id="mask0_4984_24302" style="mask-type:alpha" maskUnits="userSpaceOnUse" x="0" y="0" width="21" height="16">
<rect x="0.84375" y="0.767578" width="19.1584" height="14.9085" rx="3" fill="#C4C4C4"/>
</mask>
<g mask="url(#mask0_4984_24302)">
<rect x="0.84375" y="0.767578" width="19.1584" height="14.9085" rx="2" fill="#C4C4C4"/>
</g>
<path d="M6.03195 2.89648C5.4937 2.89648 5.05759 3.3475 5.05759 3.89867V5.04086C4.76745 5.21487 4.57031 5.53453 4.57031 5.90323V12.4179C4.57031 12.9691 5.00661 13.4201 5.54468 13.4201H15.2889C15.8273 13.4201 16.2632 12.9691 16.2632 12.4179V5.90323C16.2632 5.53453 16.0663 5.21506 15.7759 5.04086V4.90086C15.7759 4.34968 15.3398 3.89867 14.8016 3.89867H10.9039L9.44231 2.89648H6.03195ZM6.03195 4.39986H14.8018C15.1973 4.39986 15.5359 4.64416 15.6886 4.992C15.5664 4.93506 15.4317 4.90104 15.2889 4.90104H5.54468C5.40198 4.90104 5.26715 4.93506 5.14492 4.992C5.29766 4.64416 5.63639 4.39986 6.03177 4.39986H6.03195Z" fill="#131313"/>
</svg>
