<svg width="66" height="66" viewBox="0 0 66 66" fill="none" xmlns="http://www.w3.org/2000/svg">
<path d="M64.5499 32.6798C64.2597 50.5402 49.8144 64.9426 32.2854 64.8485C14.7565 64.7544 0.781791 50.1994 1.07207 32.3391C1.36234 14.4787 15.8077 0.0762793 33.3366 0.170375C50.8655 0.26447 64.8402 14.8194 64.5499 32.6798ZM7.41985 32.3731C7.18763 46.6614 18.3674 58.3054 32.3905 58.3807C46.4137 58.456 57.9699 46.934 58.2022 32.6457C58.4344 18.3574 47.2546 6.71346 33.2315 6.63818C19.2083 6.56291 7.65208 18.0848 7.41985 32.3731Z" fill="#CDFDE9"/>
<path d="M33.284 3.40396C33.313 1.61792 34.7888 0.160483 36.5624 0.355114C41.6901 0.91781 46.6089 2.7505 50.8812 5.71482C56.0429 9.2963 60.0288 14.3688 62.335 20.2909C64.6413 26.213 65.1641 32.7187 63.8375 38.9852C62.5109 45.2518 59.3944 50.9979 54.8821 55.4968C50.3699 59.9956 44.6645 63.0453 38.4874 64.26C32.3104 65.4748 25.9392 64.8001 20.1794 62.3213C14.4197 59.8425 9.53008 55.6709 6.12899 50.3341C3.2923 45.8828 1.59734 40.7878 1.17322 35.5083C1.033 33.7628 2.49302 32.3464 4.24591 32.3558C5.9988 32.3652 7.37689 33.7987 7.55917 35.5398C7.97771 39.5377 9.30931 43.3859 11.4654 46.7691C14.1863 51.0386 18.0979 54.3758 22.7057 56.3589C27.3135 58.3419 32.4105 58.8816 37.3521 57.9098C42.2938 56.938 46.8581 54.4983 50.4679 50.8992C54.0777 47.3001 56.5709 42.7033 57.6322 37.69C58.6935 32.6767 58.2752 27.4722 56.4302 22.7345C54.5853 17.9969 51.3965 13.9389 47.2671 11.0737C44.0278 8.82605 40.3238 7.39165 36.4533 6.86473C34.6858 6.6241 33.255 5.19 33.284 3.40396Z" fill="#47DC40"/>
</svg>
