<svg width="80" height="80" viewBox="0 0 80 80" fill="none" xmlns="http://www.w3.org/2000/svg">
<path opacity="0.4" d="M39.8997 73.3327C58.3092 73.3327 73.2331 58.4088 73.2331 39.9994C73.2331 21.5899 58.3092 6.66602 39.8997 6.66602C21.4902 6.66602 6.56641 21.5899 6.56641 39.9994C6.56641 58.4088 21.4902 73.3327 39.8997 73.3327Z" fill="black"/>
<path d="M49.8992 34.0991L40.2326 28.5324C37.8326 27.1324 34.9326 27.1324 32.5326 28.5324C30.1326 29.9324 28.6992 32.3991 28.6992 35.1991V46.3658C28.6992 49.1324 30.1326 51.6324 32.5326 53.0324C33.7326 53.7324 35.0659 54.0658 36.3659 54.0658C37.6992 54.0658 38.9992 53.7324 40.1992 53.0324L49.8659 47.4658C52.2659 46.0658 53.6992 43.5991 53.6992 40.7991C53.7659 37.9991 52.3326 35.4991 49.8992 34.0991Z" fill="white"/>
</svg>
