<svg width="32" height="32" viewBox="0 0 32 32" fill="none" xmlns="http://www.w3.org/2000/svg">
<circle cx="16" cy="16" r="16" fill="#233F80"/>
<path d="M21.3121 11.0001H10.6879C10.3057 11.0001 10 11.3058 10 11.6879V18.3122C10 18.6944 10.3058 19 10.6879 19L11.6688 19.0001V21.2931C11.6688 21.446 11.8598 21.5224 11.9618 21.4205L14.3822 19.0001H21.3121C21.6943 19.0001 22 18.6944 22 18.3123V11.688C22.0001 11.3058 21.6943 11 21.3121 11V11.0001ZM14.6497 15.5861H13.4777V14.4141H14.6497V15.5861ZM16.586 15.5861H15.414V14.4141H16.586V15.5861ZM18.5223 15.5861H17.3503V14.4141H18.5223V15.5861Z" fill="#9CD8FD"/>
</svg>
