<svg width="32" height="32" viewBox="0 0 32 32" fill="none" xmlns="http://www.w3.org/2000/svg">
<circle cx="16" cy="16" r="16" fill="#233F80"/>
<path d="M15.8277 11.7664H17.7728V11.0917C17.7728 10.4903 17.2912 10 16.7016 10H12.0712C11.48 10 11 10.4903 11 11.0917V20.9083C11 21.5097 11.4815 22 12.0712 22H16.7013C17.2925 22 17.7725 21.5097 17.7725 20.9083V15.6343H17.468L16.7744 16.4143C16.6896 16.5094 16.5695 16.5621 16.4466 16.5621C16.3939 16.5621 16.3413 16.5533 16.29 16.5328C16.1203 16.4684 16.0076 16.3045 16.0076 16.123L16.0077 15.6343H15.8277C15.3579 15.6343 14.9759 15.2523 14.9759 14.7825V12.6167C14.9759 12.1485 15.3578 11.7665 15.8276 11.7665L15.8277 11.7664ZM13.9458 20.3902C13.9458 20.1473 14.1419 19.9512 14.3849 19.9512C14.6278 19.9512 14.8239 20.1473 14.8239 20.3902C14.8239 20.6332 14.6278 20.8293 14.3849 20.8293C14.1419 20.8293 13.9458 20.6332 13.9458 20.3902ZM11.878 11.5058L12.5058 10.878C12.5628 10.821 12.655 10.821 12.7121 10.878C12.7691 10.9351 12.7691 11.0273 12.7121 11.0843L12.0843 11.7121C12.055 11.7414 12.0185 11.7546 11.9804 11.7546C11.9423 11.7546 11.9058 11.74 11.8765 11.7121C11.8209 11.6566 11.8209 11.5629 11.878 11.5058H11.878ZM11.878 12.5521L13.5507 10.8795C13.6077 10.8224 13.6999 10.8224 13.757 10.8795C13.814 10.9365 13.814 11.0287 13.757 11.0858L12.0844 12.7585C12.0551 12.7878 12.0186 12.801 11.9805 12.801C11.9424 12.801 11.9059 12.7864 11.8766 12.7585C11.821 12.7015 11.821 12.6092 11.878 12.5521V12.5521ZM16.7893 18.7805C16.8697 18.7805 16.9357 18.8463 16.9357 18.9268C16.9357 19.0073 16.8698 19.0732 16.7893 19.0732H11.982C11.9016 19.0732 11.8356 19.0074 11.8356 18.9268C11.8356 18.8464 11.9015 18.7805 11.982 18.7805H16.7893Z" fill="#9CD8FD"/>
<path d="M19.5398 12.0586H15.8285C15.5197 12.0586 15.2695 12.3088 15.2695 12.6176V14.782C15.2695 15.0907 15.5197 15.341 15.8285 15.341H16.3013V16.1224C16.3013 16.1838 16.3393 16.238 16.395 16.2584C16.4125 16.2643 16.4301 16.2686 16.4476 16.2686C16.4886 16.2686 16.5281 16.2511 16.5574 16.2189L17.3388 15.3408H19.5413C19.8501 15.3408 20.1003 15.0906 20.1003 14.7818L20.1002 12.6177C20.0988 12.3089 19.8485 12.0586 19.5397 12.0586L19.5398 12.0586Z" fill="#9CD8FD"/>
</svg>
