<svg width="39" height="34" viewBox="0 0 39 34" fill="none" xmlns="http://www.w3.org/2000/svg">
<path d="M35.3571 0H3.21429C1.43839 0 0 1.44 0 3.21429V25.7143C0 27.4886 1.43839 28.9286 3.21429 28.9286H21.8346C21.7511 28.4046 21.6964 27.8695 21.6964 27.3214C21.6964 21.5518 26.3732 16.875 32.1429 16.875C34.5696 16.875 36.7971 17.7091 38.5714 19.0993V3.21429C38.5714 1.44 37.1314 0 35.3571 0ZM16.0714 20.8929V8.03572L25.7143 14.4643L16.0714 20.8929Z" fill="#575757"/>
<path d="M25.7148 28.9283H30.5363V33.7497H33.7506V28.9283H38.572L32.1434 20.8926L25.7148 28.9283Z" fill="#575757"/>
</svg>
