<svg width="72" height="72" viewBox="0 0 72 72" fill="none" xmlns="http://www.w3.org/2000/svg">
<path opacity="0.4" d="M39 9.75H21C10.74 9.75 6.75 13.74 6.75 24V48C6.75 54.9 10.5 62.25 21 62.25H39C49.26 62.25 53.25 58.26 53.25 48V24C53.25 13.74 49.26 9.75 39 9.75Z" fill="#811AFF"/>
<path d="M34.4994 34.1404C37.6143 34.1404 40.1394 31.6152 40.1394 28.5004C40.1394 25.3855 37.6143 22.8604 34.4994 22.8604C31.3845 22.8604 28.8594 25.3855 28.8594 28.5004C28.8594 31.6152 31.3845 34.1404 34.4994 34.1404Z" fill="#811AFF"/>
<path d="M64.9514 18.5098C63.7214 17.8798 61.1414 17.1598 57.6314 19.6198L53.1914 22.7398C53.2214 23.1598 53.2514 23.5498 53.2514 23.9998V47.9998C53.2514 48.4498 53.1914 48.8398 53.1914 49.2598L57.6314 52.3798C59.4914 53.6998 61.1114 54.1198 62.4014 54.1198C63.5114 54.1198 64.3814 53.8198 64.9514 53.5198C66.1814 52.8898 68.2514 51.1798 68.2514 46.8898V25.1398C68.2514 20.8498 66.1814 19.1398 64.9514 18.5098Z" fill="#811AFF"/>
</svg>
