<svg width="376" height="373" viewBox="0 0 376 373" fill="none" xmlns="http://www.w3.org/2000/svg">
<rect width="376" height="373" rx="12" fill="#1B1B1B"/>
<path d="M237.051 294L236.695 70" stroke="#131313" stroke-linecap="square" stroke-dasharray="4 4"/>
<path d="M300.637 294L300.28 70" stroke="#131313" stroke-linecap="square" stroke-dasharray="4 4"/>
<path d="M65.1609 294L64.8039 70" stroke="#131313" stroke-linecap="square" stroke-dasharray="4 4"/>
<path d="M109.876 294L109.534 70" stroke="#131313" stroke-linecap="square" stroke-dasharray="4 4"/>
<path d="M173.466 294L173.109 70" stroke="#131313" stroke-linecap="square" stroke-dasharray="4 4"/>
<path d="M65 294H332.806" stroke="#131313" stroke-linecap="square"/>
<mask id="mask0_4990_27817" style="mask-type:alpha" maskUnits="userSpaceOnUse" x="47" y="88" width="286" height="228">
<path d="M47 88H333V316H47V88Z" fill="white"/>
</mask>
<g mask="url(#mask0_4990_27817)">
<path opacity="0.55" d="M622.75 220.226C622.75 220.226 594.615 246.835 579.612 236.103C564.608 225.37 560.04 191.126 518.991 191.126C477.941 191.126 421.973 258.625 389.862 258.625C357.751 258.625 324.339 193.736 276.488 225.964C228.637 258.193 237.556 278.996 199.558 278.996C161.56 278.996 128.482 151.167 85.396 151.783C53.2699 151.783 40.9382 273.141 30.2271 291.969C19.5159 310.796 -10.4137 258.625 -63.3006 258.625C-109.981 258.625 -154.249 158.178 -199.573 158.178C-244.896 158.178 -263.308 264.699 -303.518 264.699C-343.728 264.699 -343.133 225.964 -375.081 225.964C-375.307 292.601 -375.081 327.781 -375.081 327.781H622.75V220.226Z" fill="#811AFF" fill-opacity="0.2"/>
<path d="M622.75 220.091C622.75 220.091 594.612 246.647 579.607 235.936C564.601 225.225 560.033 191.049 518.979 191.049C477.925 191.049 421.95 258.414 389.835 258.414C357.72 258.414 324.305 193.653 276.448 225.818C228.592 257.983 237.513 278.745 199.51 278.745C161.507 278.745 128.426 151.168 85.3349 151.783C53.2052 151.783 40.8722 272.902 30.1598 291.692C19.4474 310.483 -10.4856 258.414 -63.3785 258.414C-110.064 258.414 -154.337 158.165 -199.666 158.165C-244.995 158.165 -263.409 264.477 -303.623 264.477C-343.837 264.477 -343.243 225.818 -375.194 225.818" stroke="#A257FF" stroke-width="2"/>
</g>
<path d="M146.444 182.12C145.74 182.12 145.16 181.968 144.704 181.664C144.256 181.36 143.9 180.92 143.636 180.344L144.836 179.72C144.948 180.112 145.128 180.428 145.376 180.668C145.624 180.908 145.988 181.028 146.468 181.028C146.964 181.028 147.352 180.892 147.632 180.62C147.92 180.348 148.064 179.972 148.064 179.492C148.064 178.996 147.932 178.62 147.668 178.364C147.404 178.1 147.024 177.968 146.528 177.968C146.176 177.968 145.86 178.024 145.58 178.136C145.308 178.24 145.088 178.412 144.92 178.652L143.864 178.448L144.344 174.08H148.952V175.184H145.364L145.076 177.416L145.052 177.548H145.076C145.26 177.356 145.496 177.204 145.784 177.092C146.08 176.972 146.428 176.912 146.828 176.912C147.34 176.912 147.78 177.02 148.148 177.236C148.524 177.444 148.812 177.736 149.012 178.112C149.22 178.488 149.324 178.924 149.324 179.42C149.324 180.004 149.196 180.496 148.94 180.896C148.692 181.296 148.348 181.6 147.908 181.808C147.476 182.016 146.988 182.12 146.444 182.12ZM156.644 176L154.352 178.352L156.788 182H155.3L153.452 179.18L152.264 180.404V182H150.98V173.3H152.264V178.928L155.12 176H156.644ZM157.976 182V176H159.116L159.176 177.008C159.384 176.624 159.66 176.34 160.004 176.156C160.356 175.972 160.728 175.88 161.12 175.88C161.552 175.88 161.948 175.98 162.308 176.18C162.676 176.372 162.952 176.664 163.136 177.056C163.264 176.792 163.44 176.572 163.664 176.396C163.888 176.22 164.136 176.092 164.408 176.012C164.68 175.924 164.948 175.88 165.212 175.88C165.596 175.88 165.956 175.96 166.292 176.12C166.628 176.28 166.9 176.524 167.108 176.852C167.316 177.18 167.42 177.6 167.42 178.112V182H166.136V178.316C166.136 177.82 166.016 177.468 165.776 177.26C165.544 177.044 165.252 176.936 164.9 176.936C164.484 176.936 164.12 177.092 163.808 177.404C163.496 177.708 163.34 178.152 163.34 178.736V182H162.056V178.316C162.056 177.82 161.936 177.468 161.696 177.26C161.464 177.044 161.172 176.936 160.82 176.936C160.58 176.936 160.34 177 160.1 177.128C159.86 177.256 159.66 177.456 159.5 177.728C159.34 178 159.26 178.36 159.26 178.808V182H157.976ZM173.435 173.3L169.859 182.84H168.659L172.235 173.3H173.435ZM174.723 182V173.3H176.007V176.96C176.207 176.584 176.475 176.312 176.811 176.144C177.155 175.968 177.535 175.88 177.951 175.88C178.375 175.88 178.755 175.964 179.091 176.132C179.435 176.292 179.707 176.54 179.907 176.876C180.107 177.204 180.207 177.616 180.207 178.112V182H178.923V178.52C178.923 177.92 178.799 177.508 178.551 177.284C178.311 177.052 178.007 176.936 177.639 176.936C177.375 176.936 177.119 177 176.871 177.128C176.623 177.248 176.415 177.448 176.247 177.728C176.087 178 176.007 178.368 176.007 178.832V182H174.723ZM182.152 182V176H183.244L183.364 177.08C183.692 176.28 184.32 175.88 185.248 175.88C185.368 175.88 185.488 175.892 185.608 175.916C185.728 175.932 185.828 175.96 185.908 176L185.728 177.128C185.64 177.096 185.54 177.072 185.428 177.056C185.324 177.032 185.18 177.02 184.996 177.02C184.74 177.02 184.492 177.088 184.252 177.224C184.02 177.352 183.824 177.552 183.664 177.824C183.512 178.088 183.436 178.42 183.436 178.82V182H182.152Z" fill="white"/>
<g filter="url(#filter0_d_4990_27817)">
<ellipse cx="125.036" cy="185.5" rx="9.03576" ry="9" fill="white"/>
</g>
<ellipse opacity="0.544922" cx="125.036" cy="185.5" rx="9.03576" ry="9" fill="#A257FF"/>
<ellipse cx="125.035" cy="185.5" rx="5.01987" ry="5" fill="#A257FF"/>
<path d="M76.11 346.1C75.3633 346.1 74.7667 345.81 74.32 345.23C73.8733 344.65 73.65 343.807 73.65 342.7C73.65 341.593 73.8733 340.75 74.32 340.17C74.7667 339.59 75.3633 339.3 76.11 339.3C76.8633 339.3 77.46 339.59 77.9 340.17C78.3467 340.75 78.57 341.593 78.57 342.7C78.57 343.807 78.3467 344.65 77.9 345.23C77.46 345.81 76.8633 346.1 76.11 346.1ZM76.11 345.38C76.6433 345.38 77.0467 345.15 77.32 344.69C77.6 344.23 77.74 343.567 77.74 342.7C77.74 341.827 77.6 341.163 77.32 340.71C77.0467 340.25 76.6433 340.02 76.11 340.02C75.5833 340.02 75.18 340.25 74.9 340.71C74.62 341.163 74.48 341.827 74.48 342.7C74.48 343.567 74.62 344.23 74.9 344.69C75.18 345.15 75.5833 345.38 76.11 345.38ZM79.9607 346V345.35C80.6207 344.863 81.1707 344.437 81.6107 344.07C82.0574 343.703 82.414 343.37 82.6807 343.07C82.9474 342.77 83.1374 342.487 83.2507 342.22C83.364 341.947 83.4207 341.663 83.4207 341.37C83.4207 340.977 83.294 340.66 83.0407 340.42C82.794 340.173 82.454 340.05 82.0207 340.05C81.5674 340.05 81.204 340.2 80.9307 340.5C80.6574 340.793 80.4974 341.187 80.4507 341.68L79.7507 341.26C79.8374 340.687 80.074 340.217 80.4607 339.85C80.854 339.483 81.384 339.3 82.0507 339.3C82.504 339.3 82.894 339.39 83.2207 339.57C83.554 339.743 83.8107 339.987 83.9907 340.3C84.1707 340.607 84.2607 340.963 84.2607 341.37C84.2607 341.783 84.1607 342.19 83.9607 342.59C83.7607 342.983 83.4307 343.397 82.9707 343.83C82.5107 344.263 81.8874 344.743 81.1007 345.27V345.28C81.174 345.273 81.274 345.27 81.4007 345.27C81.534 345.263 81.664 345.26 81.7907 345.26C81.924 345.253 82.024 345.25 82.0907 345.25H84.4007V346H79.9607Z" fill="#DBDBE5"/>
<path d="M140.11 346.1C139.363 346.1 138.767 345.81 138.32 345.23C137.873 344.65 137.65 343.807 137.65 342.7C137.65 341.593 137.873 340.75 138.32 340.17C138.767 339.59 139.363 339.3 140.11 339.3C140.863 339.3 141.46 339.59 141.9 340.17C142.347 340.75 142.57 341.593 142.57 342.7C142.57 343.807 142.347 344.65 141.9 345.23C141.46 345.81 140.863 346.1 140.11 346.1ZM140.11 345.38C140.643 345.38 141.047 345.15 141.32 344.69C141.6 344.23 141.74 343.567 141.74 342.7C141.74 341.827 141.6 341.163 141.32 340.71C141.047 340.25 140.643 340.02 140.11 340.02C139.583 340.02 139.18 340.25 138.9 340.71C138.62 341.163 138.48 341.827 138.48 342.7C138.48 343.567 138.62 344.23 138.9 344.69C139.18 345.15 139.583 345.38 140.11 345.38ZM146.881 346V344.27H143.661V343.68L146.671 339.4H147.681V343.58H148.851V344.27H147.681V346H146.881ZM144.511 343.58H146.881V341.11C146.881 340.937 146.884 340.76 146.891 340.58C146.904 340.4 146.914 340.223 146.921 340.05H146.901C146.821 340.217 146.717 340.403 146.591 340.61C146.464 340.817 146.347 340.997 146.241 341.15L144.511 343.58Z" fill="#DBDBE5"/>
<path d="M203.11 346.1C202.363 346.1 201.767 345.81 201.32 345.23C200.873 344.65 200.65 343.807 200.65 342.7C200.65 341.593 200.873 340.75 201.32 340.17C201.767 339.59 202.363 339.3 203.11 339.3C203.863 339.3 204.46 339.59 204.9 340.17C205.347 340.75 205.57 341.593 205.57 342.7C205.57 343.807 205.347 344.65 204.9 345.23C204.46 345.81 203.863 346.1 203.11 346.1ZM203.11 345.38C203.643 345.38 204.047 345.15 204.32 344.69C204.6 344.23 204.74 343.567 204.74 342.7C204.74 341.827 204.6 341.163 204.32 340.71C204.047 340.25 203.643 340.02 203.11 340.02C202.583 340.02 202.18 340.25 201.9 340.71C201.62 341.163 201.48 341.827 201.48 342.7C201.48 343.567 201.62 344.23 201.9 344.69C202.18 345.15 202.583 345.38 203.11 345.38ZM209.091 346.1C208.504 346.1 208.031 345.967 207.671 345.7C207.317 345.433 207.044 345.063 206.851 344.59L207.631 344.18C207.737 344.527 207.901 344.81 208.121 345.03C208.347 345.243 208.677 345.35 209.111 345.35C209.564 345.35 209.921 345.227 210.181 344.98C210.447 344.727 210.581 344.38 210.581 343.94C210.581 343.473 210.457 343.12 210.211 342.88C209.971 342.64 209.627 342.52 209.181 342.52C208.861 342.52 208.574 342.57 208.321 342.67C208.067 342.77 207.864 342.933 207.711 343.16L207.011 343.03L207.401 339.4H211.111V340.15H208.081L207.821 342.23L207.801 342.32H207.821C207.981 342.153 208.184 342.02 208.431 341.92C208.684 341.82 208.984 341.77 209.331 341.77C209.751 341.77 210.114 341.86 210.421 342.04C210.734 342.213 210.977 342.46 211.151 342.78C211.324 343.1 211.411 343.473 211.411 343.9C211.411 344.353 211.311 344.747 211.111 345.08C210.917 345.407 210.647 345.66 210.301 345.84C209.954 346.013 209.551 346.1 209.091 346.1Z" fill="#DBDBE5"/>
<path d="M262.11 346.1C261.363 346.1 260.767 345.81 260.32 345.23C259.873 344.65 259.65 343.807 259.65 342.7C259.65 341.593 259.873 340.75 260.32 340.17C260.767 339.59 261.363 339.3 262.11 339.3C262.863 339.3 263.46 339.59 263.9 340.17C264.347 340.75 264.57 341.593 264.57 342.7C264.57 343.807 264.347 344.65 263.9 345.23C263.46 345.81 262.863 346.1 262.11 346.1ZM262.11 345.38C262.643 345.38 263.047 345.15 263.32 344.69C263.6 344.23 263.74 343.567 263.74 342.7C263.74 341.827 263.6 341.163 263.32 340.71C263.047 340.25 262.643 340.02 262.11 340.02C261.583 340.02 261.18 340.25 260.9 340.71C260.62 341.163 260.48 341.827 260.48 342.7C260.48 343.567 260.62 344.23 260.9 344.69C261.18 345.15 261.583 345.38 262.11 345.38ZM268.451 339.3C268.977 339.3 269.407 339.41 269.741 339.63C270.074 339.843 270.344 340.197 270.551 340.69L269.811 341.04C269.711 340.733 269.547 340.493 269.321 340.32C269.101 340.14 268.794 340.05 268.401 340.05C268.021 340.05 267.697 340.177 267.431 340.43C267.164 340.677 266.961 341.01 266.821 341.43C266.687 341.85 266.621 342.323 266.621 342.85V343.03H266.661C266.734 342.743 266.867 342.513 267.061 342.34C267.261 342.16 267.484 342.03 267.731 341.95C267.984 341.863 268.231 341.82 268.471 341.82C268.917 341.82 269.307 341.907 269.641 342.08C269.974 342.253 270.231 342.5 270.411 342.82C270.597 343.14 270.691 343.52 270.691 343.96C270.691 344.613 270.484 345.133 270.071 345.52C269.664 345.907 269.114 346.1 268.421 346.1C267.867 346.1 267.401 345.953 267.021 345.66C266.641 345.367 266.354 344.967 266.161 344.46C265.967 343.947 265.871 343.36 265.871 342.7C265.871 341.96 265.984 341.34 266.211 340.84C266.437 340.333 266.744 339.95 267.131 339.69C267.524 339.43 267.964 339.3 268.451 339.3ZM268.411 342.59C267.984 342.59 267.637 342.717 267.371 342.97C267.104 343.223 266.971 343.55 266.971 343.95C266.971 344.203 267.034 344.437 267.161 344.65C267.287 344.857 267.457 345.023 267.671 345.15C267.891 345.27 268.137 345.33 268.411 345.33C268.864 345.33 269.217 345.21 269.471 344.97C269.724 344.723 269.851 344.383 269.851 343.95C269.851 343.53 269.724 343.2 269.471 342.96C269.217 342.713 268.864 342.59 268.411 342.59Z" fill="#DBDBE5"/>
<path d="M311.11 346.1C310.363 346.1 309.767 345.81 309.32 345.23C308.873 344.65 308.65 343.807 308.65 342.7C308.65 341.593 308.873 340.75 309.32 340.17C309.767 339.59 310.363 339.3 311.11 339.3C311.863 339.3 312.46 339.59 312.9 340.17C313.347 340.75 313.57 341.593 313.57 342.7C313.57 343.807 313.347 344.65 312.9 345.23C312.46 345.81 311.863 346.1 311.11 346.1ZM311.11 345.38C311.643 345.38 312.047 345.15 312.32 344.69C312.6 344.23 312.74 343.567 312.74 342.7C312.74 341.827 312.6 341.163 312.32 340.71C312.047 340.25 311.643 340.02 311.11 340.02C310.583 340.02 310.18 340.25 309.9 340.71C309.62 341.163 309.48 341.827 309.48 342.7C309.48 343.567 309.62 344.23 309.9 344.69C310.18 345.15 310.583 345.38 311.11 345.38ZM317.451 339.3C317.977 339.3 318.407 339.41 318.741 339.63C319.074 339.843 319.344 340.197 319.551 340.69L318.811 341.04C318.711 340.733 318.547 340.493 318.321 340.32C318.101 340.14 317.794 340.05 317.401 340.05C317.021 340.05 316.697 340.177 316.431 340.43C316.164 340.677 315.961 341.01 315.821 341.43C315.687 341.85 315.621 342.323 315.621 342.85V343.03H315.661C315.734 342.743 315.867 342.513 316.061 342.34C316.261 342.16 316.484 342.03 316.731 341.95C316.984 341.863 317.231 341.82 317.471 341.82C317.917 341.82 318.307 341.907 318.641 342.08C318.974 342.253 319.231 342.5 319.411 342.82C319.597 343.14 319.691 343.52 319.691 343.96C319.691 344.613 319.484 345.133 319.071 345.52C318.664 345.907 318.114 346.1 317.421 346.1C316.867 346.1 316.401 345.953 316.021 345.66C315.641 345.367 315.354 344.967 315.161 344.46C314.967 343.947 314.871 343.36 314.871 342.7C314.871 341.96 314.984 341.34 315.211 340.84C315.437 340.333 315.744 339.95 316.131 339.69C316.524 339.43 316.964 339.3 317.451 339.3ZM317.411 342.59C316.984 342.59 316.637 342.717 316.371 342.97C316.104 343.223 315.971 343.55 315.971 343.95C315.971 344.203 316.034 344.437 316.161 344.65C316.287 344.857 316.457 345.023 316.671 345.15C316.891 345.27 317.137 345.33 317.411 345.33C317.864 345.33 318.217 345.21 318.471 344.97C318.724 344.723 318.851 344.383 318.851 343.95C318.851 343.53 318.724 343.2 318.471 342.96C318.217 342.713 317.864 342.59 317.411 342.59Z" fill="#DBDBE5"/>
<path d="M24.11 111.1C23.3633 111.1 22.7667 110.81 22.32 110.23C21.8733 109.65 21.65 108.807 21.65 107.7C21.65 106.593 21.8733 105.75 22.32 105.17C22.7667 104.59 23.3633 104.3 24.11 104.3C24.8633 104.3 25.46 104.59 25.9 105.17C26.3467 105.75 26.57 106.593 26.57 107.7C26.57 108.807 26.3467 109.65 25.9 110.23C25.46 110.81 24.8633 111.1 24.11 111.1ZM24.11 110.38C24.6433 110.38 25.0467 110.15 25.32 109.69C25.6 109.23 25.74 108.567 25.74 107.7C25.74 106.827 25.6 106.163 25.32 105.71C25.0467 105.25 24.6433 105.02 24.11 105.02C23.5833 105.02 23.18 105.25 22.9 105.71C22.62 106.163 22.48 106.827 22.48 107.7C22.48 108.567 22.62 109.23 22.9 109.69C23.18 110.15 23.5833 110.38 24.11 110.38ZM30.8807 111V109.27H27.6607V108.68L30.6707 104.4H31.6807V108.58H32.8507V109.27H31.6807V111H30.8807ZM28.5107 108.58H30.8807V106.11C30.8807 105.937 30.884 105.76 30.8907 105.58C30.904 105.4 30.914 105.223 30.9207 105.05H30.9007C30.8207 105.217 30.7174 105.403 30.5907 105.61C30.464 105.817 30.3474 105.997 30.2407 106.15L28.5107 108.58Z" fill="#DBDBE6"/>
<path d="M24.11 174.1C23.3633 174.1 22.7667 173.81 22.32 173.23C21.8733 172.65 21.65 171.807 21.65 170.7C21.65 169.593 21.8733 168.75 22.32 168.17C22.7667 167.59 23.3633 167.3 24.11 167.3C24.8633 167.3 25.46 167.59 25.9 168.17C26.3467 168.75 26.57 169.593 26.57 170.7C26.57 171.807 26.3467 172.65 25.9 173.23C25.46 173.81 24.8633 174.1 24.11 174.1ZM24.11 173.38C24.6433 173.38 25.0467 173.15 25.32 172.69C25.6 172.23 25.74 171.567 25.74 170.7C25.74 169.827 25.6 169.163 25.32 168.71C25.0467 168.25 24.6433 168.02 24.11 168.02C23.5833 168.02 23.18 168.25 22.9 168.71C22.62 169.163 22.48 169.827 22.48 170.7C22.48 171.567 22.62 172.23 22.9 172.69C23.18 173.15 23.5833 173.38 24.11 173.38ZM29.9254 174.1C29.3387 174.1 28.8187 173.963 28.3654 173.69C27.9187 173.41 27.6154 173.027 27.4554 172.54L28.2554 172.13C28.3754 172.497 28.5654 172.793 28.8254 173.02C29.0921 173.24 29.4854 173.35 30.0054 173.35C30.4387 173.35 30.7721 173.237 31.0054 173.01C31.2454 172.777 31.3654 172.48 31.3654 172.12C31.3654 171.76 31.2621 171.493 31.0554 171.32C30.8554 171.14 30.5187 171.05 30.0454 171.05C29.8987 171.05 29.7287 171.06 29.5354 171.08V170.28C29.5954 170.287 29.6521 170.29 29.7054 170.29C29.7654 170.29 29.8187 170.29 29.8654 170.29C30.3521 170.29 30.6987 170.197 30.9054 170.01C31.1121 169.817 31.2154 169.517 31.2154 169.11C31.2154 168.763 31.1087 168.5 30.8954 168.32C30.6821 168.14 30.3787 168.05 29.9854 168.05C29.5654 168.05 29.2454 168.143 29.0254 168.33C28.8054 168.51 28.6321 168.757 28.5054 169.07L27.7454 168.71C27.9054 168.297 28.1821 167.957 28.5754 167.69C28.9754 167.423 29.4521 167.29 30.0054 167.29C30.4654 167.29 30.8454 167.37 31.1454 167.53C31.4454 167.683 31.6687 167.89 31.8154 168.15C31.9687 168.41 32.0454 168.697 32.0454 169.01C32.0454 169.483 31.9221 169.863 31.6754 170.15C31.4287 170.43 31.1387 170.597 30.8054 170.65V170.67C31.0987 170.677 31.3487 170.75 31.5554 170.89C31.7621 171.023 31.9187 171.2 32.0254 171.42C32.1387 171.633 32.1954 171.863 32.1954 172.11C32.1954 172.497 32.0987 172.84 31.9054 173.14C31.7187 173.44 31.4554 173.677 31.1154 173.85C30.7754 174.017 30.3787 174.1 29.9254 174.1Z" fill="#DBDBE6"/>
<path d="M24.11 237.1C23.3633 237.1 22.7667 236.81 22.32 236.23C21.8733 235.65 21.65 234.807 21.65 233.7C21.65 232.593 21.8733 231.75 22.32 231.17C22.7667 230.59 23.3633 230.3 24.11 230.3C24.8633 230.3 25.46 230.59 25.9 231.17C26.3467 231.75 26.57 232.593 26.57 233.7C26.57 234.807 26.3467 235.65 25.9 236.23C25.46 236.81 24.8633 237.1 24.11 237.1ZM24.11 236.38C24.6433 236.38 25.0467 236.15 25.32 235.69C25.6 235.23 25.74 234.567 25.74 233.7C25.74 232.827 25.6 232.163 25.32 231.71C25.0467 231.25 24.6433 231.02 24.11 231.02C23.5833 231.02 23.18 231.25 22.9 231.71C22.62 232.163 22.48 232.827 22.48 233.7C22.48 234.567 22.62 235.23 22.9 235.69C23.18 236.15 23.5833 236.38 24.11 236.38ZM27.9607 237V236.35C28.6207 235.863 29.1707 235.437 29.6107 235.07C30.0574 234.703 30.414 234.37 30.6807 234.07C30.9474 233.77 31.1374 233.487 31.2507 233.22C31.364 232.947 31.4207 232.663 31.4207 232.37C31.4207 231.977 31.294 231.66 31.0407 231.42C30.794 231.173 30.454 231.05 30.0207 231.05C29.5674 231.05 29.204 231.2 28.9307 231.5C28.6574 231.793 28.4974 232.187 28.4507 232.68L27.7507 232.26C27.8374 231.687 28.074 231.217 28.4607 230.85C28.854 230.483 29.384 230.3 30.0507 230.3C30.504 230.3 30.894 230.39 31.2207 230.57C31.554 230.743 31.8107 230.987 31.9907 231.3C32.1707 231.607 32.2607 231.963 32.2607 232.37C32.2607 232.783 32.1607 233.19 31.9607 233.59C31.7607 233.983 31.4307 234.397 30.9707 234.83C30.5107 235.263 29.8874 235.743 29.1007 236.27V236.28C29.174 236.273 29.274 236.27 29.4007 236.27C29.534 236.263 29.664 236.26 29.7907 236.26C29.924 236.253 30.024 236.25 30.0907 236.25H32.4007V237H27.9607Z" fill="#DBDBE6"/>
<path d="M24.11 300.1C23.3633 300.1 22.7667 299.81 22.32 299.23C21.8733 298.65 21.65 297.807 21.65 296.7C21.65 295.593 21.8733 294.75 22.32 294.17C22.7667 293.59 23.3633 293.3 24.11 293.3C24.8633 293.3 25.46 293.59 25.9 294.17C26.3467 294.75 26.57 295.593 26.57 296.7C26.57 297.807 26.3467 298.65 25.9 299.23C25.46 299.81 24.8633 300.1 24.11 300.1ZM24.11 299.38C24.6433 299.38 25.0467 299.15 25.32 298.69C25.6 298.23 25.74 297.567 25.74 296.7C25.74 295.827 25.6 295.163 25.32 294.71C25.0467 294.25 24.6433 294.02 24.11 294.02C23.5833 294.02 23.18 294.25 22.9 294.71C22.62 295.163 22.48 295.827 22.48 296.7C22.48 297.567 22.62 298.23 22.9 298.69C23.18 299.15 23.5833 299.38 24.11 299.38ZM29.3007 300V295.16C29.3007 295.047 29.3007 294.927 29.3007 294.8C29.3074 294.667 29.314 294.53 29.3207 294.39C29.094 294.61 28.8307 294.803 28.5307 294.97C28.2307 295.13 27.924 295.247 27.6107 295.32L27.4007 294.59C27.5207 294.577 27.6707 294.533 27.8507 294.46C28.0374 294.38 28.2307 294.283 28.4307 294.17C28.6374 294.05 28.8274 293.923 29.0007 293.79C29.174 293.657 29.3074 293.527 29.4007 293.4H30.1007V300H29.3007Z" fill="#DBDBE6"/>
<rect x="250" y="64" width="83" height="37" rx="5" fill="#131313"/>
<path d="M315 86L311 81H319L315 86Z" fill="white"/>
<path d="M265.654 79.08V83.16L269.638 79.08H270.898L267.742 82.308L270.934 87H269.782L267.07 83.016L265.654 84.456V87H264.694V79.08H265.654ZM272.389 87V81H273.229L273.289 81.936C273.505 81.568 273.785 81.3 274.129 81.132C274.481 80.964 274.841 80.88 275.209 80.88C275.633 80.88 276.033 80.976 276.409 81.168C276.785 81.36 277.073 81.656 277.273 82.056C277.401 81.784 277.581 81.564 277.813 81.396C278.045 81.22 278.297 81.092 278.569 81.012C278.849 80.924 279.113 80.88 279.361 80.88C279.745 80.88 280.109 80.96 280.453 81.12C280.805 81.28 281.093 81.528 281.317 81.864C281.541 82.2 281.653 82.632 281.653 83.16V87H280.693V83.256C280.693 82.712 280.557 82.32 280.285 82.08C280.013 81.84 279.677 81.72 279.277 81.72C278.965 81.72 278.673 81.796 278.401 81.948C278.129 82.1 277.909 82.324 277.741 82.62C277.581 82.916 277.501 83.28 277.501 83.712V87H276.541V83.256C276.541 82.712 276.405 82.32 276.133 82.08C275.861 81.84 275.525 81.72 275.125 81.72C274.861 81.72 274.589 81.792 274.309 81.936C274.037 82.072 273.809 82.292 273.625 82.596C273.441 82.9 273.349 83.3 273.349 83.796V87H272.389ZM287.619 78.24L283.947 87.84H283.047L286.719 78.24H287.619ZM290.205 79.08V82.536H294.501V79.08H295.461V87H294.501V83.436H290.205V87H289.245V79.08H290.205ZM297.819 87V81H298.599L298.731 81.984C299.067 81.248 299.707 80.88 300.651 80.88C300.755 80.88 300.867 80.888 300.987 80.904C301.115 80.92 301.223 80.952 301.311 81L301.143 81.876C301.055 81.844 300.959 81.82 300.855 81.804C300.751 81.788 300.603 81.78 300.411 81.78C300.163 81.78 299.911 81.852 299.655 81.996C299.407 82.14 299.199 82.36 299.031 82.656C298.863 82.944 298.779 83.312 298.779 83.76V87H297.819Z" fill="#8A8A8A"/>
<path d="M25.48 26.62C26.292 26.62 26.992 26.788 27.58 27.124C28.168 27.4507 28.658 27.936 29.05 28.58L28.112 29.308C27.7667 28.7107 27.3747 28.2907 26.936 28.048C26.5067 27.796 25.984 27.67 25.368 27.67C24.8733 27.67 24.4627 27.74 24.136 27.88C23.8187 28.02 23.5853 28.2067 23.436 28.44C23.2867 28.664 23.212 28.9207 23.212 29.21C23.212 29.5367 23.3147 29.826 23.52 30.078C23.7253 30.3207 24.136 30.512 24.752 30.652L26.754 31.1C27.6407 31.296 28.2567 31.5947 28.602 31.996C28.9567 32.388 29.134 32.878 29.134 33.466C29.134 33.9887 28.9847 34.4553 28.686 34.866C28.3967 35.2673 27.986 35.58 27.454 35.804C26.922 36.028 26.2967 36.14 25.578 36.14C24.906 36.14 24.3133 36.0513 23.8 35.874C23.296 35.6873 22.862 35.44 22.498 35.132C22.134 34.824 21.8353 34.4787 21.602 34.096L22.582 33.298C22.7593 33.6527 22.988 33.9653 23.268 34.236C23.548 34.5067 23.884 34.7167 24.276 34.866C24.6773 35.0153 25.1347 35.09 25.648 35.09C26.124 35.09 26.5347 35.034 26.88 34.922C27.2347 34.8007 27.5053 34.628 27.692 34.404C27.8787 34.1707 27.972 33.8907 27.972 33.564C27.972 33.2653 27.874 32.9993 27.678 32.766C27.482 32.5233 27.1133 32.3413 26.572 32.22L24.402 31.73C23.8327 31.5993 23.3707 31.422 23.016 31.198C22.6707 30.9647 22.4187 30.694 22.26 30.386C22.1107 30.0687 22.036 29.728 22.036 29.364C22.036 28.8693 22.1713 28.4167 22.442 28.006C22.722 27.586 23.1187 27.25 23.632 26.998C24.1547 26.746 24.7707 26.62 25.48 26.62ZM31.2024 38.94V29H32.1824L32.2804 30.708L32.1264 30.512C32.2477 30.1853 32.4297 29.9007 32.6724 29.658C32.9151 29.406 33.2091 29.21 33.5544 29.07C33.8997 28.93 34.2731 28.86 34.6744 28.86C35.2437 28.86 35.7664 29.0047 36.2424 29.294C36.7277 29.5833 37.1151 29.9987 37.4044 30.54C37.6937 31.0813 37.8384 31.7347 37.8384 32.5C37.8384 33.256 37.6891 33.9093 37.3904 34.46C37.1011 35.0013 36.7137 35.4167 36.2284 35.706C35.7431 35.9953 35.2111 36.14 34.6324 36.14C34.0537 36.14 33.5451 36 33.1064 35.72C32.6771 35.4307 32.3691 35.0667 32.1824 34.628L32.3224 34.418V38.94H31.2024ZM34.5204 35.16C35.2111 35.16 35.7477 34.9173 36.1304 34.432C36.5224 33.9467 36.7184 33.3027 36.7184 32.5C36.7184 31.6973 36.5271 31.0533 36.1444 30.568C35.7711 30.0827 35.2437 29.84 34.5624 29.84C34.1144 29.84 33.7224 29.952 33.3864 30.176C33.0504 30.3907 32.7891 30.6987 32.6024 31.1C32.4157 31.492 32.3224 31.9587 32.3224 32.5C32.3224 33.032 32.4111 33.4987 32.5884 33.9C32.7751 34.3013 33.0317 34.614 33.3584 34.838C33.6944 35.0527 34.0817 35.16 34.5204 35.16ZM42.9057 36.14C42.2431 36.14 41.6504 35.9953 41.1277 35.706C40.6144 35.4167 40.2131 35.0013 39.9237 34.46C39.6344 33.9093 39.4897 33.256 39.4897 32.5C39.4897 31.744 39.6344 31.0953 39.9237 30.554C40.2131 30.0033 40.6097 29.5833 41.1137 29.294C41.6177 29.0047 42.1917 28.86 42.8357 28.86C43.4891 28.86 44.0444 29 44.5017 29.28C44.9684 29.56 45.3231 29.9427 45.5657 30.428C45.8084 30.904 45.9297 31.4407 45.9297 32.038C45.9297 32.1967 45.9251 32.3413 45.9157 32.472C45.9064 32.6027 45.8924 32.7193 45.8737 32.822H40.2177V31.828H45.3837L44.8097 31.94C44.8097 31.268 44.6231 30.75 44.2497 30.386C43.8857 30.022 43.4051 29.84 42.8077 29.84C42.3504 29.84 41.9537 29.9473 41.6177 30.162C41.2911 30.3673 41.0344 30.6707 40.8477 31.072C40.6704 31.464 40.5817 31.94 40.5817 32.5C40.5817 33.0507 40.6751 33.5267 40.8617 33.928C41.0484 34.3293 41.3097 34.6373 41.6457 34.852C41.9911 35.0573 42.4017 35.16 42.8777 35.16C43.3911 35.16 43.8064 35.062 44.1237 34.866C44.4504 34.67 44.7117 34.404 44.9077 34.068L45.7897 34.586C45.6124 34.9033 45.3837 35.1787 45.1037 35.412C44.8331 35.6453 44.5111 35.8273 44.1377 35.958C43.7737 36.0793 43.3631 36.14 42.9057 36.14ZM50.9858 36.14C50.3231 36.14 49.7305 35.9953 49.2078 35.706C48.6945 35.4167 48.2931 35.0013 48.0038 34.46C47.7145 33.9093 47.5698 33.256 47.5698 32.5C47.5698 31.744 47.7145 31.0953 48.0038 30.554C48.2931 30.0033 48.6898 29.5833 49.1938 29.294C49.6978 29.0047 50.2718 28.86 50.9158 28.86C51.5691 28.86 52.1245 29 52.5818 29.28C53.0485 29.56 53.4031 29.9427 53.6458 30.428C53.8885 30.904 54.0098 31.4407 54.0098 32.038C54.0098 32.1967 54.0051 32.3413 53.9958 32.472C53.9865 32.6027 53.9725 32.7193 53.9538 32.822H48.2978V31.828H53.4638L52.8898 31.94C52.8898 31.268 52.7031 30.75 52.3298 30.386C51.9658 30.022 51.4851 29.84 50.8878 29.84C50.4305 29.84 50.0338 29.9473 49.6978 30.162C49.3711 30.3673 49.1145 30.6707 48.9278 31.072C48.7505 31.464 48.6618 31.94 48.6618 32.5C48.6618 33.0507 48.7551 33.5267 48.9418 33.928C49.1285 34.3293 49.3898 34.6373 49.7258 34.852C50.0711 35.0573 50.4818 35.16 50.9578 35.16C51.4711 35.16 51.8865 35.062 52.2038 34.866C52.5305 34.67 52.7918 34.404 52.9878 34.068L53.8698 34.586C53.6925 34.9033 53.4638 35.1787 53.1838 35.412C52.9131 35.6453 52.5911 35.8273 52.2178 35.958C51.8538 36.0793 51.4431 36.14 50.9858 36.14ZM58.8699 36.14C58.2912 36.14 57.7592 35.9953 57.2739 35.706C56.7886 35.4167 56.4012 35.0013 56.1119 34.46C55.8226 33.9093 55.6779 33.256 55.6779 32.5C55.6779 31.7253 55.8319 31.0673 56.1399 30.526C56.4479 29.9847 56.8539 29.574 57.3579 29.294C57.8619 29.0047 58.4032 28.86 58.9819 28.86C59.5606 28.86 60.0599 29.0093 60.4799 29.308C60.9092 29.6067 61.1939 30.0033 61.3339 30.498L61.1939 30.596V25.78H62.3139V36H61.3339L61.2359 34.306L61.3899 34.222C61.3246 34.6327 61.1659 34.9827 60.9139 35.272C60.6712 35.552 60.3679 35.7667 60.0039 35.916C59.6492 36.0653 59.2712 36.14 58.8699 36.14ZM58.9819 35.16C59.4299 35.16 59.8172 35.048 60.1439 34.824C60.4799 34.6 60.7366 34.2827 60.9139 33.872C61.1006 33.452 61.1939 32.962 61.1939 32.402C61.1939 31.87 61.1006 31.4127 60.9139 31.03C60.7366 30.6473 60.4846 30.3533 60.1579 30.148C59.8406 29.9427 59.4672 29.84 59.0379 29.84C58.3286 29.84 57.7779 30.0827 57.3859 30.568C56.9939 31.0533 56.7979 31.6973 56.7979 32.5C56.7979 33.3027 56.9892 33.9467 57.3719 34.432C57.7546 34.9173 58.2912 35.16 58.9819 35.16ZM73.6227 36.14C72.7454 36.14 71.9847 35.9487 71.3407 35.566C70.7061 35.174 70.2114 34.6233 69.8567 33.914C69.5114 33.2047 69.3387 32.36 69.3387 31.38C69.3387 30.4 69.5207 29.5553 69.8847 28.846C70.2581 28.1367 70.7761 27.5907 71.4387 27.208C72.1014 26.816 72.8621 26.62 73.7207 26.62C74.6354 26.62 75.3774 26.7927 75.9467 27.138C76.5254 27.4833 76.9921 28.0153 77.3467 28.734L76.3247 29.294C76.1194 28.762 75.7927 28.3607 75.3447 28.09C74.9061 27.81 74.3647 27.67 73.7207 27.67C73.0954 27.67 72.5401 27.8193 72.0547 28.118C71.5787 28.4073 71.2007 28.832 70.9207 29.392C70.6501 29.9427 70.5147 30.6053 70.5147 31.38C70.5147 32.1547 70.6314 32.822 70.8647 33.382C71.1074 33.9327 71.4621 34.3573 71.9287 34.656C72.4047 34.9453 72.9834 35.09 73.6647 35.09C74.0474 35.09 74.4021 35.0433 74.7287 34.95C75.0647 34.8473 75.3541 34.698 75.5967 34.502C75.8487 34.306 76.0447 34.0587 76.1847 33.76C76.3247 33.4613 76.3947 33.1113 76.3947 32.71V32.388H73.4547V31.338H77.4167V36H76.5347L76.4787 34.278L76.7167 34.32C76.4741 34.8987 76.0914 35.3467 75.5687 35.664C75.0461 35.9813 74.3974 36.14 73.6227 36.14ZM79.8196 36V29H80.7296L80.8836 30.148C81.0796 29.7187 81.3642 29.3967 81.7376 29.182C82.1202 28.9673 82.5822 28.86 83.1236 28.86C83.2449 28.86 83.3756 28.8693 83.5156 28.888C83.6649 28.9067 83.7909 28.944 83.8936 29L83.6976 30.022C83.5949 29.9847 83.4829 29.9567 83.3616 29.938C83.2402 29.9193 83.0676 29.91 82.8436 29.91C82.5542 29.91 82.2602 29.994 81.9616 30.162C81.6722 30.33 81.4296 30.5867 81.2336 30.932C81.0376 31.268 80.9396 31.6973 80.9396 32.22V36H79.8196ZM89.431 31.478C89.431 30.9553 89.291 30.554 89.011 30.274C88.731 29.9847 88.3343 29.84 87.821 29.84C87.3357 29.84 86.925 29.9473 86.589 30.162C86.253 30.3673 86.0057 30.7033 85.847 31.17L84.937 30.61C85.1237 30.0873 85.469 29.6673 85.973 29.35C86.477 29.0233 87.1023 28.86 87.849 28.86C88.353 28.86 88.8103 28.9487 89.221 29.126C89.6317 29.294 89.9537 29.5553 90.187 29.91C90.4297 30.2553 90.551 30.7033 90.551 31.254V34.642C90.551 34.978 90.7283 35.146 91.083 35.146C91.2603 35.146 91.433 35.1227 91.601 35.076L91.545 35.958C91.3583 36.0513 91.1157 36.098 90.817 36.098C90.5463 36.098 90.3037 36.0467 90.089 35.944C89.8743 35.8413 89.7063 35.6873 89.585 35.482C89.4637 35.2673 89.403 35.0013 89.403 34.684V34.544L89.683 34.586C89.571 34.95 89.3797 35.2487 89.109 35.482C88.8383 35.706 88.535 35.874 88.199 35.986C87.863 36.0887 87.5317 36.14 87.205 36.14C86.7943 36.14 86.4117 36.07 86.057 35.93C85.7023 35.79 85.4177 35.58 85.203 35.3C84.9977 35.0107 84.895 34.656 84.895 34.236C84.895 33.7133 85.0677 33.284 85.413 32.948C85.7677 32.6027 86.2577 32.3693 86.883 32.248L89.655 31.702V32.626L87.401 33.088C86.9437 33.1813 86.603 33.312 86.379 33.48C86.155 33.648 86.043 33.8813 86.043 34.18C86.043 34.4693 86.155 34.7073 86.379 34.894C86.6123 35.0713 86.939 35.16 87.359 35.16C87.6297 35.16 87.8863 35.1273 88.129 35.062C88.381 34.9873 88.605 34.88 88.801 34.74C88.997 34.5907 89.151 34.4087 89.263 34.194C89.375 33.97 89.431 33.7087 89.431 33.41V31.478ZM93.2727 38.94V29H94.2527L94.3507 30.708L94.1967 30.512C94.318 30.1853 94.5 29.9007 94.7427 29.658C94.9854 29.406 95.2794 29.21 95.6247 29.07C95.97 28.93 96.3434 28.86 96.7447 28.86C97.314 28.86 97.8367 29.0047 98.3127 29.294C98.798 29.5833 99.1854 29.9987 99.4747 30.54C99.764 31.0813 99.9087 31.7347 99.9087 32.5C99.9087 33.256 99.7594 33.9093 99.4607 34.46C99.1714 35.0013 98.784 35.4167 98.2987 35.706C97.8134 35.9953 97.2814 36.14 96.7027 36.14C96.124 36.14 95.6154 36 95.1767 35.72C94.7474 35.4307 94.4394 35.0667 94.2527 34.628L94.3927 34.418V38.94H93.2727ZM96.5907 35.16C97.2814 35.16 97.818 34.9173 98.2007 34.432C98.5927 33.9467 98.7887 33.3027 98.7887 32.5C98.7887 31.6973 98.5974 31.0533 98.2147 30.568C97.8414 30.0827 97.314 29.84 96.6327 29.84C96.1847 29.84 95.7927 29.952 95.4567 30.176C95.1207 30.3907 94.8594 30.6987 94.6727 31.1C94.486 31.492 94.3927 31.9587 94.3927 32.5C94.3927 33.032 94.4814 33.4987 94.6587 33.9C94.8454 34.3013 95.102 34.614 95.4287 34.838C95.7647 35.0527 96.152 35.16 96.5907 35.16ZM102.05 36V25.78H103.17V30.05C103.413 29.63 103.735 29.3267 104.136 29.14C104.537 28.9533 104.976 28.86 105.452 28.86C105.956 28.86 106.413 28.958 106.824 29.154C107.235 29.3407 107.561 29.63 107.804 30.022C108.056 30.414 108.182 30.9133 108.182 31.52V36H107.062V31.912C107.062 31.1373 106.894 30.6007 106.558 30.302C106.231 29.994 105.825 29.84 105.34 29.84C105.004 29.84 104.668 29.9193 104.332 30.078C103.996 30.2367 103.716 30.498 103.492 30.862C103.277 31.2167 103.17 31.6927 103.17 32.29V36H102.05ZM118.038 25.486L118.682 26.13C118.066 26.69 117.576 27.2827 117.212 27.908C116.848 28.524 116.586 29.1773 116.428 29.868C116.269 30.5493 116.19 31.282 116.19 32.066C116.19 32.8407 116.269 33.5733 116.428 34.264C116.586 34.9547 116.848 35.608 117.212 36.224C117.576 36.84 118.066 37.4327 118.682 38.002L118.038 38.646C117.048 37.7873 116.302 36.8073 115.798 35.706C115.294 34.5953 115.042 33.382 115.042 32.066C115.042 30.75 115.294 29.5367 115.798 28.426C116.302 27.3153 117.048 26.3353 118.038 25.486ZM121.536 26.76V36H120.416V26.76H121.536ZM124.281 36V29H125.261L125.359 30.568L125.177 30.414C125.326 30.0407 125.527 29.742 125.779 29.518C126.031 29.2847 126.32 29.1167 126.647 29.014C126.983 28.9113 127.328 28.86 127.683 28.86C128.187 28.86 128.644 28.958 129.055 29.154C129.465 29.3407 129.792 29.63 130.035 30.022C130.287 30.414 130.413 30.9133 130.413 31.52V36H129.293V31.912C129.293 31.1373 129.125 30.6007 128.789 30.302C128.462 29.994 128.056 29.84 127.571 29.84C127.235 29.84 126.899 29.9193 126.563 30.078C126.227 30.2367 125.947 30.4933 125.723 30.848C125.508 31.2027 125.401 31.6787 125.401 32.276V36H124.281ZM145.168 26.76L141.136 30.89L140.968 31.072L138.49 33.606V32.094L143.698 26.76H145.168ZM139.05 26.76V36H137.93V26.76H139.05ZM141.248 30.176L145.21 36H143.866L140.324 30.806L141.248 30.176ZM147.467 27.656C147.215 27.656 147.01 27.5813 146.851 27.432C146.702 27.2733 146.627 27.068 146.627 26.816C146.627 26.564 146.702 26.3633 146.851 26.214C147.01 26.0553 147.215 25.976 147.467 25.976C147.719 25.976 147.92 26.0553 148.069 26.214C148.228 26.3633 148.307 26.564 148.307 26.816C148.307 27.068 148.228 27.2733 148.069 27.432C147.92 27.5813 147.719 27.656 147.467 27.656ZM148.027 29V36H146.907V29H148.027ZM151.69 25.78V34.222C151.69 34.5767 151.756 34.824 151.886 34.964C152.017 35.0947 152.227 35.16 152.516 35.16C152.703 35.16 152.857 35.146 152.978 35.118C153.1 35.09 153.263 35.0387 153.468 34.964L153.286 35.944C153.137 36.0093 152.974 36.056 152.796 36.084C152.619 36.1213 152.437 36.14 152.25 36.14C151.681 36.14 151.256 35.986 150.976 35.678C150.706 35.37 150.57 34.8987 150.57 34.264V25.78H151.69ZM157.804 28.86C158.466 28.86 159.05 29.0047 159.554 29.294C160.067 29.5833 160.468 30.0033 160.758 30.554C161.047 31.0953 161.192 31.744 161.192 32.5C161.192 33.256 161.047 33.9093 160.758 34.46C160.468 35.0013 160.067 35.4167 159.554 35.706C159.05 35.9953 158.466 36.14 157.804 36.14C157.15 36.14 156.567 35.9953 156.054 35.706C155.54 35.4167 155.139 35.0013 154.85 34.46C154.56 33.9093 154.416 33.256 154.416 32.5C154.416 31.744 154.56 31.0953 154.85 30.554C155.139 30.0033 155.54 29.5833 156.054 29.294C156.567 29.0047 157.15 28.86 157.804 28.86ZM157.804 29.826C157.328 29.826 156.922 29.9333 156.586 30.148C156.25 30.3627 155.988 30.6707 155.802 31.072C155.624 31.464 155.536 31.94 155.536 32.5C155.536 33.0507 155.624 33.5267 155.802 33.928C155.988 34.3293 156.25 34.6373 156.586 34.852C156.922 35.0667 157.328 35.174 157.804 35.174C158.28 35.174 158.686 35.0667 159.022 34.852C159.358 34.6373 159.614 34.3293 159.792 33.928C159.978 33.5267 160.072 33.0507 160.072 32.5C160.072 31.94 159.978 31.464 159.792 31.072C159.614 30.6707 159.358 30.3627 159.022 30.148C158.686 29.9333 158.28 29.826 157.804 29.826ZM163.3 36V29H164.28L164.35 30.092C164.602 29.6627 164.929 29.35 165.33 29.154C165.741 28.958 166.161 28.86 166.59 28.86C167.085 28.86 167.551 28.972 167.99 29.196C168.429 29.42 168.765 29.7653 168.998 30.232C169.147 29.9147 169.357 29.658 169.628 29.462C169.899 29.2567 170.193 29.1073 170.51 29.014C170.837 28.9113 171.145 28.86 171.434 28.86C171.882 28.86 172.307 28.9533 172.708 29.14C173.119 29.3267 173.455 29.616 173.716 30.008C173.977 30.4 174.108 30.904 174.108 31.52V36H172.988V31.632C172.988 30.9973 172.829 30.54 172.512 30.26C172.195 29.98 171.803 29.84 171.336 29.84C170.972 29.84 170.631 29.9287 170.314 30.106C169.997 30.2833 169.74 30.5447 169.544 30.89C169.357 31.2353 169.264 31.66 169.264 32.164V36H168.144V31.632C168.144 30.9973 167.985 30.54 167.668 30.26C167.351 29.98 166.959 29.84 166.492 29.84C166.184 29.84 165.867 29.924 165.54 30.092C165.223 30.2507 164.957 30.5073 164.742 30.862C164.527 31.2167 164.42 31.6833 164.42 32.262V36H163.3ZM179.57 36.14C178.907 36.14 178.314 35.9953 177.792 35.706C177.278 35.4167 176.877 35.0013 176.588 34.46C176.298 33.9093 176.154 33.256 176.154 32.5C176.154 31.744 176.298 31.0953 176.588 30.554C176.877 30.0033 177.274 29.5833 177.778 29.294C178.282 29.0047 178.856 28.86 179.5 28.86C180.153 28.86 180.708 29 181.166 29.28C181.632 29.56 181.987 29.9427 182.23 30.428C182.472 30.904 182.594 31.4407 182.594 32.038C182.594 32.1967 182.589 32.3413 182.58 32.472C182.57 32.6027 182.556 32.7193 182.538 32.822H176.882V31.828H182.048L181.474 31.94C181.474 31.268 181.287 30.75 180.914 30.386C180.55 30.022 180.069 29.84 179.472 29.84C179.014 29.84 178.618 29.9473 178.282 30.162C177.955 30.3673 177.698 30.6707 177.512 31.072C177.334 31.464 177.246 31.94 177.246 32.5C177.246 33.0507 177.339 33.5267 177.526 33.928C177.712 34.3293 177.974 34.6373 178.31 34.852C178.655 35.0573 179.066 35.16 179.542 35.16C180.055 35.16 180.47 35.062 180.788 34.866C181.114 34.67 181.376 34.404 181.572 34.068L182.454 34.586C182.276 34.9033 182.048 35.1787 181.768 35.412C181.497 35.6453 181.175 35.8273 180.802 35.958C180.438 36.0793 180.027 36.14 179.57 36.14ZM186.171 27.012V34.068C186.171 34.4133 186.269 34.67 186.465 34.838C186.661 35.006 186.913 35.09 187.221 35.09C187.491 35.09 187.725 35.0433 187.921 34.95C188.117 34.8567 188.294 34.7307 188.453 34.572L188.845 35.51C188.63 35.706 188.373 35.86 188.075 35.972C187.785 36.084 187.449 36.14 187.067 36.14C186.712 36.14 186.381 36.0793 186.073 35.958C185.765 35.8273 185.517 35.6267 185.331 35.356C185.153 35.076 185.06 34.712 185.051 34.264V27.32L186.171 27.012ZM188.719 29V29.966H183.651V29H188.719ZM193.31 36.14C192.647 36.14 192.055 35.9953 191.532 35.706C191.019 35.4167 190.617 35.0013 190.328 34.46C190.039 33.9093 189.894 33.256 189.894 32.5C189.894 31.744 190.039 31.0953 190.328 30.554C190.617 30.0033 191.014 29.5833 191.518 29.294C192.022 29.0047 192.596 28.86 193.24 28.86C193.893 28.86 194.449 29 194.906 29.28C195.373 29.56 195.727 29.9427 195.97 30.428C196.213 30.904 196.334 31.4407 196.334 32.038C196.334 32.1967 196.329 32.3413 196.32 32.472C196.311 32.6027 196.297 32.7193 196.278 32.822H190.622V31.828H195.788L195.214 31.94C195.214 31.268 195.027 30.75 194.654 30.386C194.29 30.022 193.809 29.84 193.212 29.84C192.755 29.84 192.358 29.9473 192.022 30.162C191.695 30.3673 191.439 30.6707 191.252 31.072C191.075 31.464 190.986 31.94 190.986 32.5C190.986 33.0507 191.079 33.5267 191.266 33.928C191.453 34.3293 191.714 34.6373 192.05 34.852C192.395 35.0573 192.806 35.16 193.282 35.16C193.795 35.16 194.211 35.062 194.528 34.866C194.855 34.67 195.116 34.404 195.312 34.068L196.194 34.586C196.017 34.9033 195.788 35.1787 195.508 35.412C195.237 35.6453 194.915 35.8273 194.542 35.958C194.178 36.0793 193.767 36.14 193.31 36.14ZM198.464 36V29H199.374L199.528 30.148C199.724 29.7187 200.009 29.3967 200.382 29.182C200.765 28.9673 201.227 28.86 201.768 28.86C201.889 28.86 202.02 28.8693 202.16 28.888C202.309 28.9067 202.435 28.944 202.538 29L202.342 30.022C202.239 29.9847 202.127 29.9567 202.006 29.938C201.885 29.9193 201.712 29.91 201.488 29.91C201.199 29.91 200.905 29.994 200.606 30.162C200.317 30.33 200.074 30.5867 199.878 30.932C199.682 31.268 199.584 31.6973 199.584 32.22V36H198.464ZM207.988 25.78L203.704 36.98H202.654L206.938 25.78H207.988ZM211.703 36.14C211.022 36.14 210.392 35.9953 209.813 35.706C209.244 35.4167 208.805 35.006 208.497 34.474L209.449 33.788C209.654 34.2173 209.953 34.5533 210.345 34.796C210.746 35.0387 211.227 35.16 211.787 35.16C212.282 35.16 212.669 35.0667 212.949 34.88C213.229 34.684 213.369 34.432 213.369 34.124C213.369 33.928 213.304 33.7507 213.173 33.592C213.052 33.424 212.814 33.3027 212.459 33.228L210.779 32.878C210.098 32.738 209.608 32.5047 209.309 32.178C209.02 31.8513 208.875 31.4453 208.875 30.96C208.875 30.5773 208.982 30.2273 209.197 29.91C209.421 29.5927 209.734 29.3407 210.135 29.154C210.546 28.958 211.026 28.86 211.577 28.86C212.268 28.86 212.851 28.9953 213.327 29.266C213.803 29.5367 214.158 29.9193 214.391 30.414L213.453 31.03C213.294 30.6193 213.038 30.3207 212.683 30.134C212.328 29.938 211.96 29.84 211.577 29.84C211.241 29.84 210.952 29.8867 210.709 29.98C210.476 30.0733 210.294 30.204 210.163 30.372C210.042 30.5307 209.981 30.7127 209.981 30.918C209.981 31.1233 210.051 31.3147 210.191 31.492C210.331 31.66 210.592 31.7813 210.975 31.856L212.725 32.22C213.378 32.3507 213.836 32.5653 214.097 32.864C214.358 33.1627 214.489 33.5267 214.489 33.956C214.489 34.3947 214.372 34.782 214.139 35.118C213.906 35.4447 213.579 35.6967 213.159 35.874C212.739 36.0513 212.254 36.14 211.703 36.14ZM219.492 36.14C218.829 36.14 218.236 35.9953 217.714 35.706C217.2 35.4167 216.799 35.0013 216.51 34.46C216.22 33.9093 216.076 33.256 216.076 32.5C216.076 31.744 216.22 31.0953 216.51 30.554C216.799 30.0033 217.196 29.5833 217.7 29.294C218.204 29.0047 218.778 28.86 219.422 28.86C220.075 28.86 220.63 29 221.088 29.28C221.554 29.56 221.909 29.9427 222.152 30.428C222.394 30.904 222.516 31.4407 222.516 32.038C222.516 32.1967 222.511 32.3413 222.502 32.472C222.492 32.6027 222.478 32.7193 222.46 32.822H216.804V31.828H221.97L221.396 31.94C221.396 31.268 221.209 30.75 220.836 30.386C220.472 30.022 219.991 29.84 219.394 29.84C218.936 29.84 218.54 29.9473 218.204 30.162C217.877 30.3673 217.62 30.6707 217.434 31.072C217.256 31.464 217.168 31.94 217.168 32.5C217.168 33.0507 217.261 33.5267 217.448 33.928C217.634 34.3293 217.896 34.6373 218.232 34.852C218.577 35.0573 218.988 35.16 219.464 35.16C219.977 35.16 220.392 35.062 220.71 34.866C221.036 34.67 221.298 34.404 221.494 34.068L222.376 34.586C222.198 34.9033 221.97 35.1787 221.69 35.412C221.419 35.6453 221.097 35.8273 220.724 35.958C220.36 36.0793 219.949 36.14 219.492 36.14ZM227.544 28.86C228.029 28.86 228.454 28.9347 228.818 29.084C229.191 29.2333 229.513 29.448 229.784 29.728C230.054 30.008 230.274 30.3393 230.442 30.722L229.378 31.226C229.228 30.778 229 30.4373 228.692 30.204C228.393 29.9613 228.001 29.84 227.516 29.84C227.049 29.84 226.648 29.9473 226.312 30.162C225.976 30.3673 225.719 30.6707 225.542 31.072C225.364 31.464 225.276 31.94 225.276 32.5C225.276 33.0507 225.364 33.5267 225.542 33.928C225.719 34.3293 225.976 34.6373 226.312 34.852C226.648 35.0573 227.049 35.16 227.516 35.16C227.88 35.16 228.192 35.104 228.454 34.992C228.724 34.88 228.944 34.7167 229.112 34.502C229.289 34.2873 229.41 34.026 229.476 33.718L230.512 34.082C230.353 34.5113 230.134 34.88 229.854 35.188C229.583 35.496 229.252 35.734 228.86 35.902C228.477 36.0607 228.038 36.14 227.544 36.14C226.89 36.14 226.307 35.9953 225.794 35.706C225.28 35.4167 224.879 35.0013 224.59 34.46C224.3 33.9093 224.156 33.256 224.156 32.5C224.156 31.744 224.3 31.0953 224.59 30.554C224.879 30.0033 225.28 29.5833 225.794 29.294C226.307 29.0047 226.89 28.86 227.544 28.86ZM235.378 28.86C236.04 28.86 236.624 29.0047 237.128 29.294C237.641 29.5833 238.042 30.0033 238.332 30.554C238.621 31.0953 238.766 31.744 238.766 32.5C238.766 33.256 238.621 33.9093 238.332 34.46C238.042 35.0013 237.641 35.4167 237.128 35.706C236.624 35.9953 236.04 36.14 235.378 36.14C234.724 36.14 234.141 35.9953 233.628 35.706C233.114 35.4167 232.713 35.0013 232.424 34.46C232.134 33.9093 231.99 33.256 231.99 32.5C231.99 31.744 232.134 31.0953 232.424 30.554C232.713 30.0033 233.114 29.5833 233.628 29.294C234.141 29.0047 234.724 28.86 235.378 28.86ZM235.378 29.826C234.902 29.826 234.496 29.9333 234.16 30.148C233.824 30.3627 233.562 30.6707 233.376 31.072C233.198 31.464 233.11 31.94 233.11 32.5C233.11 33.0507 233.198 33.5267 233.376 33.928C233.562 34.3293 233.824 34.6373 234.16 34.852C234.496 35.0667 234.902 35.174 235.378 35.174C235.854 35.174 236.26 35.0667 236.596 34.852C236.932 34.6373 237.188 34.3293 237.366 33.928C237.552 33.5267 237.646 33.0507 237.646 32.5C237.646 31.94 237.552 31.464 237.366 31.072C237.188 30.6707 236.932 30.3627 236.596 30.148C236.26 29.9333 235.854 29.826 235.378 29.826ZM240.874 36V29H241.854L241.952 30.568L241.77 30.414C241.92 30.0407 242.12 29.742 242.372 29.518C242.624 29.2847 242.914 29.1167 243.24 29.014C243.576 28.9113 243.922 28.86 244.276 28.86C244.78 28.86 245.238 28.958 245.648 29.154C246.059 29.3407 246.386 29.63 246.628 30.022C246.88 30.414 247.006 30.9133 247.006 31.52V36H245.886V31.912C245.886 31.1373 245.718 30.6007 245.382 30.302C245.056 29.994 244.65 29.84 244.164 29.84C243.828 29.84 243.492 29.9193 243.156 30.078C242.82 30.2367 242.54 30.4933 242.316 30.848C242.102 31.2027 241.994 31.6787 241.994 32.276V36H240.874ZM252.272 36.14C251.694 36.14 251.162 35.9953 250.676 35.706C250.191 35.4167 249.804 35.0013 249.514 34.46C249.225 33.9093 249.08 33.256 249.08 32.5C249.08 31.7253 249.234 31.0673 249.542 30.526C249.85 29.9847 250.256 29.574 250.76 29.294C251.264 29.0047 251.806 28.86 252.384 28.86C252.963 28.86 253.462 29.0093 253.882 29.308C254.312 29.6067 254.596 30.0033 254.736 30.498L254.596 30.596V25.78H255.716V36H254.736L254.638 34.306L254.792 34.222C254.727 34.6327 254.568 34.9827 254.316 35.272C254.074 35.552 253.77 35.7667 253.406 35.916C253.052 36.0653 252.674 36.14 252.272 36.14ZM252.384 35.16C252.832 35.16 253.22 35.048 253.546 34.824C253.882 34.6 254.139 34.2827 254.316 33.872C254.503 33.452 254.596 32.962 254.596 32.402C254.596 31.87 254.503 31.4127 254.316 31.03C254.139 30.6473 253.887 30.3533 253.56 30.148C253.243 29.9427 252.87 29.84 252.44 29.84C251.731 29.84 251.18 30.0827 250.788 30.568C250.396 31.0533 250.2 31.6973 250.2 32.5C250.2 33.3027 250.392 33.9467 250.774 34.432C251.157 34.9173 251.694 35.16 252.384 35.16ZM258.068 38.646L257.424 38.002C258.04 37.4327 258.53 36.84 258.894 36.224C259.258 35.608 259.519 34.9547 259.678 34.264C259.836 33.5733 259.916 32.8407 259.916 32.066C259.916 31.282 259.836 30.5493 259.678 29.868C259.519 29.1773 259.258 28.524 258.894 27.908C258.53 27.2827 258.04 26.69 257.424 26.13L258.068 25.486C259.057 26.3353 259.804 27.3153 260.308 28.426C260.812 29.5367 261.064 30.75 261.064 32.066C261.064 33.382 260.812 34.5953 260.308 35.706C259.804 36.8073 259.057 37.7873 258.068 38.646Z" fill="white"/>
<defs>
<filter id="filter0_d_4990_27817" x="110" y="172.5" width="30.0703" height="30" filterUnits="userSpaceOnUse" color-interpolation-filters="sRGB">
<feFlood flood-opacity="0" result="BackgroundImageFix"/>
<feColorMatrix in="SourceAlpha" type="matrix" values="0 0 0 0 0 0 0 0 0 0 0 0 0 0 0 0 0 0 127 0" result="hardAlpha"/>
<feOffset dy="2"/>
<feGaussianBlur stdDeviation="3"/>
<feColorMatrix type="matrix" values="0 0 0 0 0 0 0 0 0 0 0 0 0 0 0 0 0 0 0.127123 0"/>
<feBlend mode="normal" in2="BackgroundImageFix" result="effect1_dropShadow_4990_27817"/>
<feBlend mode="normal" in="SourceGraphic" in2="effect1_dropShadow_4990_27817" result="shape"/>
</filter>
</defs>
</svg>
