<svg width="517" height="361" viewBox="0 0 517 361" fill="none" xmlns="http://www.w3.org/2000/svg">
<rect x="1" y="1" width="514.971" height="359" rx="9" fill="#27282C" stroke="#797979" stroke-width="2"/>
<path d="M0.43615 123.521H27.5089C33.0317 123.521 37.5089 127.999 37.5089 133.521V227.476C37.5089 232.999 33.0317 237.476 27.5089 237.476H0" stroke="#797979" stroke-width="1.5"/>
<path d="M0.764843 80.9004H55.7765C61.2993 80.9004 65.7765 85.3775 65.7765 90.9004V270.973C65.7765 276.496 61.2993 280.973 55.7765 280.973H0" stroke="#797979" stroke-width="1.5"/>
<path d="M516.204 80.9004H461.192C455.669 80.9004 451.192 85.3775 451.192 90.9004V270.973C451.192 276.496 455.669 280.973 461.192 280.973H516.969" stroke="#797979" stroke-width="1.5"/>
<path d="M516.564 123.521H489.462C483.939 123.521 479.462 127.999 479.462 133.521V227.476C479.462 232.999 483.939 237.476 489.462 237.476H517" stroke="#797979" stroke-width="1.5"/>
<path d="M451.19 215.732C437.871 208.773 428.358 162.234 451.19 145.271" stroke="#797979" stroke-width="1.5"/>
<path d="M65.7712 215.732C79.0896 208.773 88.603 162.234 65.7712 145.271" stroke="#797979" stroke-width="1.5"/>
<path d="M258.758 1.74023L258.758 360.131" stroke="#797979" stroke-width="1.5"/>
<path d="M297.25 180.5C297.25 200.76 279.938 217.25 258.5 217.25C237.062 217.25 219.75 200.76 219.75 180.5C219.75 160.24 237.062 143.75 258.5 143.75C279.938 143.75 297.25 160.24 297.25 180.5Z" stroke="#797979" stroke-width="1.5"/>
<circle cx="269" cy="118" r="5" fill="white"/>
<circle cx="57" cy="164" r="15" fill="#59D7B2"/>
<path d="M56.708 168V163.44C56.708 163.232 56.708 163.02 56.708 162.804C56.716 162.58 56.72 162.352 56.72 162.12C56.456 162.36 56.164 162.572 55.844 162.756C55.524 162.932 55.188 163.052 54.836 163.116L54.644 161.412C54.852 161.396 55.072 161.344 55.304 161.256C55.544 161.168 55.78 161.06 56.012 160.932C56.244 160.804 56.452 160.668 56.636 160.524C56.82 160.372 56.96 160.224 57.056 160.08H58.7V168H56.708Z" fill="#131313"/>
<circle cx="125" cy="100" r="15" fill="#5597FF"/>
<path d="M125.501 104V102.26H121.637V100.964C121.709 100.836 121.801 100.68 121.913 100.496C122.033 100.312 122.173 100.1 122.333 99.86L124.913 96.08H127.325V100.844H128.537V102.26H127.325V104H125.501ZM123.293 100.844H125.525V98.444C125.525 98.284 125.529 98.12 125.537 97.952C125.545 97.776 125.553 97.6 125.561 97.424H125.537C125.457 97.592 125.361 97.768 125.249 97.952C125.145 98.128 125.045 98.288 124.949 98.432L123.545 100.484C123.505 100.548 123.465 100.608 123.425 100.664C123.385 100.72 123.341 100.78 123.293 100.844Z" fill="white"/>
<circle cx="310" cy="45" r="15" fill="#5597FF"/>
<path d="M302.949 49V47.68C303.629 47.256 304.209 46.86 304.689 46.492C305.169 46.124 305.557 45.776 305.853 45.448C306.157 45.12 306.381 44.808 306.525 44.512C306.669 44.216 306.741 43.928 306.741 43.648C306.741 43.344 306.649 43.092 306.465 42.892C306.289 42.684 306.025 42.58 305.673 42.58C305.297 42.58 305.005 42.72 304.797 43C304.589 43.272 304.477 43.672 304.461 44.2L302.697 43.66C302.713 43.068 302.853 42.572 303.117 42.172C303.389 41.772 303.757 41.472 304.221 41.272C304.685 41.064 305.213 40.96 305.805 40.96C306.325 40.96 306.773 41.036 307.149 41.188C307.533 41.332 307.845 41.528 308.085 41.776C308.325 42.016 308.501 42.288 308.613 42.592C308.733 42.888 308.793 43.192 308.793 43.504C308.793 44.016 308.661 44.496 308.397 44.944C308.133 45.384 307.749 45.812 307.245 46.228C306.749 46.636 306.145 47.048 305.433 47.464V47.476C305.569 47.468 305.729 47.46 305.913 47.452C306.097 47.444 306.289 47.44 306.489 47.44C306.689 47.432 306.869 47.428 307.029 47.428H308.889V49H302.949ZM313.481 40.96C313.905 40.96 314.297 41.016 314.657 41.128C315.025 41.24 315.345 41.424 315.617 41.68C315.889 41.936 316.093 42.28 316.229 42.712L314.549 43.504C314.469 43.224 314.329 43.004 314.129 42.844C313.937 42.676 313.677 42.592 313.349 42.592C313.125 42.592 312.917 42.648 312.725 42.76C312.541 42.864 312.381 43.016 312.245 43.216C312.109 43.416 312.005 43.66 311.933 43.948C311.869 44.236 311.837 44.56 311.837 44.92C311.837 44.944 311.837 44.972 311.837 45.004C311.837 45.028 311.837 45.064 311.837 45.112L311.861 45.184C311.957 44.944 312.105 44.744 312.305 44.584C312.513 44.416 312.749 44.288 313.013 44.2C313.277 44.112 313.541 44.068 313.805 44.068C314.293 44.068 314.729 44.164 315.113 44.356C315.497 44.548 315.797 44.824 316.013 45.184C316.237 45.536 316.349 45.964 316.349 46.468C316.349 47.012 316.225 47.484 315.977 47.884C315.729 48.276 315.385 48.58 314.945 48.796C314.505 49.012 313.981 49.12 313.373 49.12C312.693 49.12 312.093 48.972 311.573 48.676C311.061 48.372 310.661 47.924 310.373 47.332C310.093 46.732 309.953 45.992 309.953 45.112C309.953 44.168 310.109 43.392 310.421 42.784C310.733 42.176 311.153 41.72 311.681 41.416C312.217 41.112 312.817 40.96 313.481 40.96ZM313.337 45.46C313.129 45.46 312.937 45.504 312.761 45.592C312.593 45.672 312.457 45.792 312.353 45.952C312.257 46.112 312.209 46.3 312.209 46.516C312.209 46.724 312.261 46.908 312.365 47.068C312.469 47.228 312.605 47.352 312.773 47.44C312.941 47.528 313.129 47.572 313.337 47.572C313.697 47.572 313.973 47.48 314.165 47.296C314.365 47.112 314.465 46.852 314.465 46.516C314.465 46.292 314.421 46.104 314.333 45.952C314.245 45.792 314.117 45.672 313.949 45.592C313.789 45.504 313.585 45.46 313.337 45.46Z" fill="white"/>
<circle cx="355" cy="85" r="15" fill="#D52121"/>
<path d="M352.146 89V87.68C352.826 87.256 353.406 86.86 353.886 86.492C354.366 86.124 354.754 85.776 355.05 85.448C355.354 85.12 355.578 84.808 355.722 84.512C355.866 84.216 355.938 83.928 355.938 83.648C355.938 83.344 355.846 83.092 355.662 82.892C355.486 82.684 355.222 82.58 354.87 82.58C354.494 82.58 354.202 82.72 353.994 83C353.786 83.272 353.674 83.672 353.658 84.2L351.894 83.66C351.91 83.068 352.05 82.572 352.314 82.172C352.586 81.772 352.954 81.472 353.418 81.272C353.882 81.064 354.41 80.96 355.002 80.96C355.522 80.96 355.97 81.036 356.346 81.188C356.73 81.332 357.042 81.528 357.282 81.776C357.522 82.016 357.698 82.288 357.81 82.592C357.93 82.888 357.99 83.192 357.99 83.504C357.99 84.016 357.858 84.496 357.594 84.944C357.33 85.384 356.946 85.812 356.442 86.228C355.946 86.636 355.342 87.048 354.63 87.464V87.476C354.766 87.468 354.926 87.46 355.11 87.452C355.294 87.444 355.486 87.44 355.686 87.44C355.886 87.432 356.066 87.428 356.226 87.428H358.086V89H352.146Z" fill="white"/>
<circle cx="410" cy="79" r="15" fill="#5597FF"/>
<path d="M405.347 83V78.44C405.347 78.232 405.347 78.02 405.347 77.804C405.355 77.58 405.359 77.352 405.359 77.12C405.095 77.36 404.803 77.572 404.483 77.756C404.163 77.932 403.827 78.052 403.475 78.116L403.283 76.412C403.491 76.396 403.711 76.344 403.943 76.256C404.183 76.168 404.419 76.06 404.651 75.932C404.883 75.804 405.091 75.668 405.275 75.524C405.459 75.372 405.599 75.224 405.695 75.08H407.339V83H405.347ZM412.087 83.12C411.007 83.12 410.187 82.776 409.627 82.088C409.075 81.4 408.799 80.384 408.799 79.04C408.799 77.696 409.075 76.68 409.627 75.992C410.187 75.304 411.007 74.96 412.087 74.96C413.167 74.96 413.983 75.304 414.535 75.992C415.095 76.68 415.375 77.696 415.375 79.04C415.375 80.384 415.095 81.4 414.535 82.088C413.983 82.776 413.167 83.12 412.087 83.12ZM412.087 81.512C412.383 81.512 412.623 81.432 412.807 81.272C412.991 81.104 413.123 80.84 413.203 80.48C413.291 80.112 413.335 79.632 413.335 79.04C413.335 78.448 413.291 77.972 413.203 77.612C413.123 77.244 412.991 76.98 412.807 76.82C412.623 76.652 412.383 76.568 412.087 76.568C411.799 76.568 411.559 76.652 411.367 76.82C411.183 76.98 411.047 77.244 410.959 77.612C410.879 77.972 410.839 78.448 410.839 79.04C410.839 79.632 410.879 80.112 410.959 80.48C411.047 80.84 411.183 81.104 411.367 81.272C411.559 81.432 411.799 81.512 412.087 81.512Z" fill="white"/>
<circle cx="428" cy="152" r="15" fill="#5597FF"/>
<path d="M427.819 147.96C428.547 147.96 429.155 148.116 429.643 148.428C430.139 148.732 430.511 149.184 430.759 149.784C431.007 150.384 431.131 151.128 431.131 152.016C431.131 152.976 430.987 153.76 430.699 154.368C430.419 154.968 430.031 155.412 429.535 155.7C429.039 155.98 428.467 156.12 427.819 156.12C427.131 156.12 426.531 155.984 426.019 155.712C425.515 155.432 425.139 154.992 424.891 154.392L426.739 153.66C426.803 153.94 426.923 154.16 427.099 154.32C427.283 154.48 427.535 154.56 427.855 154.56C428.103 154.56 428.319 154.512 428.503 154.416C428.687 154.312 428.835 154.164 428.947 153.972C429.067 153.78 429.155 153.548 429.211 153.276C429.267 152.996 429.295 152.676 429.295 152.316C429.295 152.284 429.295 152.256 429.295 152.232C429.295 152.2 429.295 152.164 429.295 152.124H429.259C429.171 152.364 429.027 152.56 428.827 152.712C428.627 152.864 428.399 152.98 428.143 153.06C427.887 153.132 427.623 153.168 427.351 153.168C426.855 153.168 426.411 153.068 426.019 152.868C425.635 152.66 425.335 152.372 425.119 152.004C424.903 151.628 424.795 151.192 424.795 150.696C424.795 150.128 424.919 149.644 425.167 149.244C425.423 148.836 425.775 148.52 426.223 148.296C426.679 148.072 427.211 147.96 427.819 147.96ZM427.819 149.544C427.475 149.544 427.199 149.64 426.991 149.832C426.791 150.024 426.691 150.296 426.691 150.648C426.691 150.968 426.795 151.22 427.003 151.404C427.211 151.58 427.483 151.668 427.819 151.668C428.035 151.668 428.227 151.624 428.395 151.536C428.571 151.448 428.707 151.328 428.803 151.176C428.899 151.016 428.947 150.828 428.947 150.612C428.947 150.388 428.899 150.2 428.803 150.048C428.707 149.888 428.571 149.764 428.395 149.676C428.227 149.588 428.035 149.544 427.819 149.544Z" fill="white"/>
<circle cx="454" cy="119" r="15" fill="#D52121"/>
<path d="M449.511 123V118.44C449.511 118.232 449.511 118.02 449.511 117.804C449.519 117.58 449.523 117.352 449.523 117.12C449.259 117.36 448.967 117.572 448.647 117.756C448.327 117.932 447.991 118.052 447.639 118.116L447.447 116.412C447.655 116.396 447.875 116.344 448.107 116.256C448.347 116.168 448.583 116.06 448.815 115.932C449.047 115.804 449.255 115.668 449.439 115.524C449.623 115.372 449.763 115.224 449.859 115.08H451.503V123H449.511ZM456.491 114.96C456.915 114.96 457.307 115.016 457.667 115.128C458.035 115.24 458.355 115.424 458.627 115.68C458.899 115.936 459.103 116.28 459.239 116.712L457.559 117.504C457.479 117.224 457.339 117.004 457.139 116.844C456.947 116.676 456.687 116.592 456.359 116.592C456.135 116.592 455.927 116.648 455.735 116.76C455.551 116.864 455.391 117.016 455.255 117.216C455.119 117.416 455.015 117.66 454.943 117.948C454.879 118.236 454.847 118.56 454.847 118.92C454.847 118.944 454.847 118.972 454.847 119.004C454.847 119.028 454.847 119.064 454.847 119.112L454.871 119.184C454.967 118.944 455.115 118.744 455.315 118.584C455.523 118.416 455.759 118.288 456.023 118.2C456.287 118.112 456.551 118.068 456.815 118.068C457.303 118.068 457.739 118.164 458.123 118.356C458.507 118.548 458.807 118.824 459.023 119.184C459.247 119.536 459.359 119.964 459.359 120.468C459.359 121.012 459.235 121.484 458.987 121.884C458.739 122.276 458.395 122.58 457.955 122.796C457.515 123.012 456.991 123.12 456.383 123.12C455.703 123.12 455.103 122.972 454.583 122.676C454.071 122.372 453.671 121.924 453.383 121.332C453.103 120.732 452.963 119.992 452.963 119.112C452.963 118.168 453.119 117.392 453.431 116.784C453.743 116.176 454.163 115.72 454.691 115.416C455.227 115.112 455.827 114.96 456.491 114.96ZM456.347 119.46C456.139 119.46 455.947 119.504 455.771 119.592C455.603 119.672 455.467 119.792 455.363 119.952C455.267 120.112 455.219 120.3 455.219 120.516C455.219 120.724 455.271 120.908 455.375 121.068C455.479 121.228 455.615 121.352 455.783 121.44C455.951 121.528 456.139 121.572 456.347 121.572C456.707 121.572 456.983 121.48 457.175 121.296C457.375 121.112 457.475 120.852 457.475 120.516C457.475 120.292 457.431 120.104 457.343 119.952C457.255 119.792 457.127 119.672 456.959 119.592C456.799 119.504 456.595 119.46 456.347 119.46Z" fill="white"/>
<circle cx="385" cy="138" r="15" fill="#D52121"/>
<path d="M385.258 133.263C385.682 133.263 386.074 133.319 386.434 133.431C386.802 133.543 387.122 133.727 387.394 133.983C387.666 134.239 387.87 134.583 388.006 135.015L386.326 135.807C386.246 135.527 386.106 135.307 385.906 135.147C385.714 134.979 385.454 134.895 385.126 134.895C384.902 134.895 384.694 134.951 384.502 135.063C384.318 135.167 384.158 135.319 384.022 135.519C383.886 135.719 383.782 135.963 383.71 136.251C383.646 136.539 383.614 136.863 383.614 137.223C383.614 137.247 383.614 137.275 383.614 137.307C383.614 137.331 383.614 137.367 383.614 137.415L383.638 137.487C383.734 137.247 383.882 137.047 384.082 136.887C384.29 136.719 384.526 136.591 384.79 136.503C385.054 136.415 385.318 136.371 385.582 136.371C386.07 136.371 386.506 136.467 386.89 136.659C387.274 136.851 387.574 137.127 387.79 137.487C388.014 137.839 388.126 138.267 388.126 138.771C388.126 139.315 388.002 139.787 387.754 140.187C387.506 140.579 387.162 140.883 386.722 141.099C386.282 141.315 385.758 141.423 385.15 141.423C384.47 141.423 383.87 141.275 383.35 140.979C382.838 140.675 382.438 140.227 382.15 139.635C381.87 139.035 381.73 138.295 381.73 137.415C381.73 136.471 381.886 135.695 382.198 135.087C382.51 134.479 382.93 134.023 383.458 133.719C383.994 133.415 384.594 133.263 385.258 133.263ZM385.114 137.763C384.906 137.763 384.714 137.807 384.538 137.895C384.37 137.975 384.234 138.095 384.13 138.255C384.034 138.415 383.986 138.603 383.986 138.819C383.986 139.027 384.038 139.211 384.142 139.371C384.246 139.531 384.382 139.655 384.55 139.743C384.718 139.831 384.906 139.875 385.114 139.875C385.474 139.875 385.75 139.783 385.942 139.599C386.142 139.415 386.242 139.155 386.242 138.819C386.242 138.595 386.198 138.407 386.11 138.255C386.022 138.095 385.894 137.975 385.726 137.895C385.566 137.807 385.362 137.763 385.114 137.763Z" fill="white"/>
<circle cx="425" cy="208" r="15" fill="#D52121"/>
<path d="M420.71 212V207.44C420.71 207.232 420.71 207.02 420.71 206.804C420.718 206.58 420.722 206.352 420.722 206.12C420.458 206.36 420.166 206.572 419.846 206.756C419.526 206.932 419.19 207.052 418.838 207.116L418.646 205.412C418.854 205.396 419.074 205.344 419.306 205.256C419.546 205.168 419.782 205.06 420.014 204.932C420.246 204.804 420.454 204.668 420.638 204.524C420.822 204.372 420.962 204.224 421.058 204.08H422.702V212H420.71ZM427.018 212.12C426.33 212.12 425.73 211.988 425.218 211.724C424.714 211.452 424.29 211.012 423.946 210.404L425.758 209.504C425.846 209.824 425.986 210.08 426.178 210.272C426.378 210.464 426.674 210.56 427.066 210.56C427.314 210.56 427.526 210.516 427.702 210.428C427.878 210.34 428.014 210.212 428.11 210.044C428.214 209.868 428.266 209.656 428.266 209.408C428.266 209.168 428.218 208.968 428.122 208.808C428.034 208.648 427.902 208.528 427.726 208.448C427.55 208.36 427.33 208.316 427.066 208.316C426.874 208.316 426.702 208.336 426.55 208.376C426.398 208.408 426.258 208.46 426.13 208.532C426.01 208.596 425.898 208.68 425.794 208.784L424.234 208.496L424.738 204.08H429.73V205.676H426.238L426.034 207.26L425.998 207.452H426.01C426.17 207.268 426.394 207.128 426.682 207.032C426.97 206.936 427.29 206.888 427.642 206.888C428.162 206.888 428.606 206.992 428.974 207.2C429.342 207.408 429.626 207.692 429.826 208.052C430.026 208.412 430.126 208.824 430.126 209.288C430.126 209.776 430.042 210.2 429.874 210.56C429.714 210.912 429.486 211.204 429.19 211.436C428.902 211.668 428.57 211.84 428.194 211.952C427.826 212.064 427.434 212.12 427.018 212.12Z" fill="white"/>
<circle cx="433" cy="263" r="15" fill="#5597FF"/>
<path d="M429.624 267V262.44C429.624 262.232 429.624 262.02 429.624 261.804C429.632 261.58 429.636 261.352 429.636 261.12C429.372 261.36 429.08 261.572 428.76 261.756C428.44 261.932 428.104 262.052 427.752 262.116L427.56 260.412C427.768 260.396 427.988 260.344 428.22 260.256C428.46 260.168 428.696 260.06 428.928 259.932C429.16 259.804 429.368 259.668 429.552 259.524C429.736 259.372 429.876 259.224 429.972 259.08H431.616V267H429.624ZM434.792 267V262.44C434.792 262.232 434.792 262.02 434.792 261.804C434.8 261.58 434.804 261.352 434.804 261.12C434.54 261.36 434.248 261.572 433.928 261.756C433.608 261.932 433.272 262.052 432.92 262.116L432.728 260.412C432.936 260.396 433.156 260.344 433.388 260.256C433.628 260.168 433.864 260.06 434.096 259.932C434.328 259.804 434.536 259.668 434.72 259.524C434.904 259.372 435.044 259.224 435.14 259.08H436.784V267H434.792Z" fill="white"/>
<circle cx="494" cy="205" r="15" fill="#131313"/>
<path d="M493.708 209V204.44C493.708 204.232 493.708 204.02 493.708 203.804C493.716 203.58 493.72 203.352 493.72 203.12C493.456 203.36 493.164 203.572 492.844 203.756C492.524 203.932 492.188 204.052 491.836 204.116L491.644 202.412C491.852 202.396 492.072 202.344 492.304 202.256C492.544 202.168 492.78 202.06 493.012 201.932C493.244 201.804 493.452 201.668 493.636 201.524C493.82 201.372 493.96 201.224 494.056 201.08H495.7V209H493.708Z" fill="#FFD601"/>
<circle cx="240" cy="101" r="15" fill="#5597FF"/>
<path d="M240.055 105.12C239.207 105.12 238.499 104.956 237.931 104.628C237.371 104.292 236.983 103.804 236.767 103.164L238.663 102.348C238.703 102.636 238.775 102.868 238.879 103.044C238.991 103.212 239.139 103.336 239.323 103.416C239.507 103.488 239.723 103.524 239.971 103.524C240.195 103.524 240.383 103.488 240.535 103.416C240.695 103.336 240.819 103.224 240.907 103.08C240.995 102.936 241.039 102.764 241.039 102.564C241.039 102.356 240.995 102.188 240.907 102.06C240.827 101.932 240.707 101.84 240.547 101.784C240.395 101.728 240.207 101.7 239.983 101.7C239.879 101.7 239.783 101.704 239.695 101.712C239.607 101.712 239.507 101.72 239.395 101.736V100.392C239.459 100.4 239.523 100.408 239.587 100.416C239.651 100.416 239.727 100.416 239.815 100.416C240.191 100.416 240.459 100.34 240.619 100.188C240.787 100.028 240.871 99.78 240.871 99.444C240.871 99.156 240.787 98.936 240.619 98.784C240.459 98.632 240.231 98.556 239.935 98.556C239.623 98.556 239.367 98.64 239.167 98.808C238.967 98.968 238.839 99.244 238.783 99.636L236.971 99.012C237.059 98.572 237.247 98.2 237.535 97.896C237.823 97.592 238.183 97.36 238.615 97.2C239.055 97.04 239.539 96.96 240.067 96.96C240.675 96.96 241.187 97.048 241.603 97.224C242.019 97.4 242.335 97.652 242.551 97.98C242.767 98.308 242.875 98.692 242.875 99.132C242.875 99.476 242.819 99.764 242.707 99.996C242.603 100.228 242.467 100.416 242.299 100.56C242.139 100.704 241.975 100.812 241.807 100.884C241.639 100.948 241.499 100.988 241.387 101.004V101.04C241.531 101.04 241.695 101.068 241.879 101.124C242.063 101.18 242.243 101.272 242.419 101.4C242.595 101.52 242.739 101.688 242.851 101.904C242.971 102.12 243.031 102.388 243.031 102.708C243.031 103.204 242.899 103.632 242.635 103.992C242.379 104.352 242.027 104.632 241.579 104.832C241.131 105.024 240.623 105.12 240.055 105.12Z" fill="white"/>
<circle cx="298" cy="139" r="15" fill="#D52121"/>
<path d="M294.746 135.08H301.262V136.544C300.606 137.192 300.086 137.86 299.702 138.548C299.326 139.228 299.058 139.936 298.898 140.672C298.746 141.408 298.67 142.184 298.67 143H296.63C296.63 142.128 296.738 141.3 296.954 140.516C297.178 139.724 297.522 138.968 297.986 138.248C298.458 137.528 299.066 136.832 299.81 136.16L300.242 136.7H294.746V135.08Z" fill="white"/>
<circle cx="235" cy="187" r="15" fill="#D52121"/>
<path d="M234.944 183.392C235.672 183.392 236.28 183.548 236.768 183.86C237.264 184.164 237.636 184.616 237.884 185.216C238.132 185.816 238.256 186.56 238.256 187.448C238.256 188.408 238.112 189.192 237.824 189.8C237.544 190.4 237.156 190.844 236.66 191.132C236.164 191.412 235.592 191.552 234.944 191.552C234.256 191.552 233.656 191.416 233.144 191.144C232.64 190.864 232.264 190.424 232.016 189.824L233.864 189.092C233.928 189.372 234.048 189.592 234.224 189.752C234.408 189.912 234.66 189.992 234.98 189.992C235.228 189.992 235.444 189.944 235.628 189.848C235.812 189.744 235.96 189.596 236.072 189.404C236.192 189.212 236.28 188.98 236.336 188.708C236.392 188.428 236.42 188.108 236.42 187.748C236.42 187.716 236.42 187.688 236.42 187.664C236.42 187.632 236.42 187.596 236.42 187.556H236.384C236.296 187.796 236.152 187.992 235.952 188.144C235.752 188.296 235.524 188.412 235.268 188.492C235.012 188.564 234.748 188.6 234.476 188.6C233.98 188.6 233.536 188.5 233.144 188.3C232.76 188.092 232.46 187.804 232.244 187.436C232.028 187.06 231.92 186.624 231.92 186.128C231.92 185.56 232.044 185.076 232.292 184.676C232.548 184.268 232.9 183.952 233.348 183.728C233.804 183.504 234.336 183.392 234.944 183.392ZM234.944 184.976C234.6 184.976 234.324 185.072 234.116 185.264C233.916 185.456 233.816 185.728 233.816 186.08C233.816 186.4 233.92 186.652 234.128 186.836C234.336 187.012 234.608 187.1 234.944 187.1C235.16 187.1 235.352 187.056 235.52 186.968C235.696 186.88 235.832 186.76 235.928 186.608C236.024 186.448 236.072 186.26 236.072 186.044C236.072 185.82 236.024 185.632 235.928 185.48C235.832 185.32 235.696 185.196 235.52 185.108C235.352 185.02 235.16 184.976 234.944 184.976Z" fill="white"/>
<circle cx="215" cy="294" r="15" fill="#D52121"/>
<path d="M210.329 298V293.44C210.329 293.232 210.329 293.02 210.329 292.804C210.337 292.58 210.341 292.352 210.341 292.12C210.077 292.36 209.785 292.572 209.465 292.756C209.145 292.932 208.809 293.052 208.457 293.116L208.265 291.412C208.473 291.396 208.693 291.344 208.925 291.256C209.165 291.168 209.401 291.06 209.633 290.932C209.865 290.804 210.073 290.668 210.257 290.524C210.441 290.372 210.581 290.224 210.677 290.08H212.321V298H210.329ZM217.585 298V296.26H213.721V294.964C213.793 294.836 213.885 294.68 213.997 294.496C214.117 294.312 214.257 294.1 214.417 293.86L216.997 290.08H219.409V294.844H220.621V296.26H219.409V298H217.585ZM215.377 294.844H217.609V292.444C217.609 292.284 217.613 292.12 217.621 291.952C217.629 291.776 217.637 291.6 217.645 291.424H217.621C217.541 291.592 217.445 291.768 217.333 291.952C217.229 292.128 217.129 292.288 217.033 292.432L215.629 294.484C215.589 294.548 215.549 294.608 215.509 294.664C215.469 294.72 215.425 294.78 215.377 294.844Z" fill="white"/>
<circle cx="304" cy="216" r="15" fill="#5597FF"/>
<path d="M303.708 220V215.44C303.708 215.232 303.708 215.02 303.708 214.804C303.716 214.58 303.72 214.352 303.72 214.12C303.456 214.36 303.164 214.572 302.844 214.756C302.524 214.932 302.188 215.052 301.836 215.116L301.644 213.412C301.852 213.396 302.072 213.344 302.304 213.256C302.544 213.168 302.78 213.06 303.012 212.932C303.244 212.804 303.452 212.668 303.636 212.524C303.82 212.372 303.96 212.224 304.056 212.08H305.7V220H303.708Z" fill="white"/>
<circle cx="350" cy="184" r="15" fill="#D52121"/>
<path d="M342.884 188V186.68C343.564 186.256 344.144 185.86 344.624 185.492C345.104 185.124 345.492 184.776 345.788 184.448C346.092 184.12 346.316 183.808 346.46 183.512C346.604 183.216 346.676 182.928 346.676 182.648C346.676 182.344 346.584 182.092 346.4 181.892C346.224 181.684 345.96 181.58 345.608 181.58C345.232 181.58 344.94 181.72 344.732 182C344.524 182.272 344.412 182.672 344.396 183.2L342.632 182.66C342.648 182.068 342.788 181.572 343.052 181.172C343.324 180.772 343.692 180.472 344.156 180.272C344.62 180.064 345.148 179.96 345.74 179.96C346.26 179.96 346.708 180.036 347.084 180.188C347.468 180.332 347.78 180.528 348.02 180.776C348.26 181.016 348.436 181.288 348.548 181.592C348.668 181.888 348.728 182.192 348.728 182.504C348.728 183.016 348.596 183.496 348.332 183.944C348.068 184.384 347.684 184.812 347.18 185.228C346.684 185.636 346.08 186.048 345.368 186.464V186.476C345.504 186.468 345.664 186.46 345.848 186.452C346.032 186.444 346.224 186.44 346.424 186.44C346.624 186.432 346.804 186.428 346.964 186.428H348.824V188H342.884ZM353.069 179.984C353.669 179.984 354.189 180.072 354.629 180.248C355.069 180.424 355.409 180.676 355.648 181.004C355.897 181.324 356.021 181.708 356.021 182.156C356.021 182.58 355.917 182.944 355.709 183.248C355.501 183.552 355.193 183.784 354.785 183.944V183.956C355.265 184.116 355.637 184.352 355.901 184.664C356.165 184.968 356.297 185.36 356.297 185.84C356.297 186.304 356.165 186.708 355.901 187.052C355.645 187.388 355.277 187.652 354.797 187.844C354.317 188.028 353.741 188.12 353.069 188.12C352.405 188.12 351.833 188.028 351.353 187.844C350.873 187.652 350.501 187.388 350.237 187.052C349.981 186.708 349.853 186.304 349.853 185.84C349.853 185.36 349.985 184.968 350.249 184.664C350.513 184.352 350.885 184.116 351.365 183.956V183.944C350.965 183.792 350.657 183.564 350.441 183.26C350.225 182.948 350.117 182.58 350.117 182.156C350.117 181.708 350.237 181.324 350.477 181.004C350.725 180.676 351.073 180.424 351.521 180.248C351.969 180.072 352.485 179.984 353.069 179.984ZM353.081 181.484C352.761 181.484 352.505 181.564 352.312 181.724C352.121 181.884 352.025 182.108 352.025 182.396C352.025 182.676 352.121 182.9 352.312 183.068C352.505 183.228 352.761 183.308 353.081 183.308C353.401 183.308 353.653 183.228 353.837 183.068C354.029 182.9 354.125 182.676 354.125 182.396C354.125 182.108 354.029 181.884 353.837 181.724C353.653 181.564 353.401 181.484 353.081 181.484ZM353.081 186.62C353.337 186.62 353.553 186.584 353.729 186.512C353.913 186.432 354.053 186.316 354.149 186.164C354.245 186.012 354.293 185.836 354.293 185.636C354.293 185.428 354.245 185.252 354.149 185.108C354.053 184.956 353.913 184.844 353.729 184.772C353.545 184.692 353.329 184.652 353.081 184.652C352.833 184.652 352.613 184.692 352.421 184.772C352.237 184.844 352.097 184.956 352.001 185.108C351.905 185.252 351.857 185.428 351.857 185.636C351.857 185.836 351.905 186.012 352.001 186.164C352.097 186.316 352.237 186.432 352.421 186.512C352.605 186.584 352.825 186.62 353.081 186.62Z" fill="white"/>
<circle cx="365" cy="252" r="15" fill="#D52121"/>
<path d="M358.089 256V254.68C358.769 254.256 359.349 253.86 359.829 253.492C360.309 253.124 360.697 252.776 360.993 252.448C361.297 252.12 361.521 251.808 361.665 251.512C361.809 251.216 361.881 250.928 361.881 250.648C361.881 250.344 361.789 250.092 361.605 249.892C361.429 249.684 361.165 249.58 360.813 249.58C360.437 249.58 360.145 249.72 359.937 250C359.729 250.272 359.617 250.672 359.601 251.2L357.837 250.66C357.853 250.068 357.993 249.572 358.257 249.172C358.529 248.772 358.897 248.472 359.361 248.272C359.825 248.064 360.353 247.96 360.945 247.96C361.465 247.96 361.913 248.036 362.289 248.188C362.673 248.332 362.985 248.528 363.225 248.776C363.465 249.016 363.641 249.288 363.753 249.592C363.873 249.888 363.933 250.192 363.933 250.504C363.933 251.016 363.801 251.496 363.537 251.944C363.273 252.384 362.889 252.812 362.385 253.228C361.889 253.636 361.285 254.048 360.573 254.464V254.476C360.709 254.468 360.869 254.46 361.053 254.452C361.237 254.444 361.429 254.44 361.629 254.44C361.829 254.432 362.009 254.428 362.169 254.428H364.029V256H358.089ZM368.13 256.12C367.282 256.12 366.574 255.956 366.006 255.628C365.446 255.292 365.058 254.804 364.842 254.164L366.738 253.348C366.778 253.636 366.85 253.868 366.954 254.044C367.066 254.212 367.214 254.336 367.398 254.416C367.582 254.488 367.798 254.524 368.046 254.524C368.27 254.524 368.458 254.488 368.61 254.416C368.77 254.336 368.894 254.224 368.982 254.08C369.07 253.936 369.114 253.764 369.114 253.564C369.114 253.356 369.07 253.188 368.982 253.06C368.902 252.932 368.782 252.84 368.622 252.784C368.47 252.728 368.282 252.7 368.058 252.7C367.954 252.7 367.858 252.704 367.77 252.712C367.682 252.712 367.582 252.72 367.47 252.736V251.392C367.534 251.4 367.598 251.408 367.662 251.416C367.726 251.416 367.802 251.416 367.89 251.416C368.266 251.416 368.534 251.34 368.694 251.188C368.862 251.028 368.946 250.78 368.946 250.444C368.946 250.156 368.862 249.936 368.694 249.784C368.534 249.632 368.306 249.556 368.01 249.556C367.698 249.556 367.442 249.64 367.242 249.808C367.042 249.968 366.914 250.244 366.858 250.636L365.046 250.012C365.134 249.572 365.322 249.2 365.61 248.896C365.898 248.592 366.258 248.36 366.69 248.2C367.13 248.04 367.614 247.96 368.142 247.96C368.75 247.96 369.262 248.048 369.678 248.224C370.094 248.4 370.41 248.652 370.626 248.98C370.842 249.308 370.95 249.692 370.95 250.132C370.95 250.476 370.894 250.764 370.782 250.996C370.678 251.228 370.542 251.416 370.374 251.56C370.214 251.704 370.05 251.812 369.882 251.884C369.714 251.948 369.574 251.988 369.462 252.004V252.04C369.606 252.04 369.77 252.068 369.954 252.124C370.138 252.18 370.318 252.272 370.494 252.4C370.67 252.52 370.814 252.688 370.926 252.904C371.046 253.12 371.106 253.388 371.106 253.708C371.106 254.204 370.974 254.632 370.71 254.992C370.454 255.352 370.102 255.632 369.654 255.832C369.206 256.024 368.698 256.12 368.13 256.12Z" fill="white"/>
<circle cx="407" cy="301" r="15" fill="#D52121"/>
<path d="M399.949 305V303.68C400.629 303.256 401.209 302.86 401.689 302.492C402.169 302.124 402.557 301.776 402.853 301.448C403.157 301.12 403.381 300.808 403.525 300.512C403.669 300.216 403.741 299.928 403.741 299.648C403.741 299.344 403.649 299.092 403.465 298.892C403.289 298.684 403.025 298.58 402.673 298.58C402.297 298.58 402.005 298.72 401.797 299C401.589 299.272 401.477 299.672 401.461 300.2L399.697 299.66C399.713 299.068 399.853 298.572 400.117 298.172C400.389 297.772 400.757 297.472 401.221 297.272C401.685 297.064 402.213 296.96 402.805 296.96C403.325 296.96 403.773 297.036 404.149 297.188C404.533 297.332 404.845 297.528 405.085 297.776C405.325 298.016 405.501 298.288 405.613 298.592C405.733 298.888 405.793 299.192 405.793 299.504C405.793 300.016 405.661 300.496 405.397 300.944C405.133 301.384 404.749 301.812 404.245 302.228C403.749 302.636 403.145 303.048 402.433 303.464V303.476C402.569 303.468 402.729 303.46 402.913 303.452C403.097 303.444 403.289 303.44 403.489 303.44C403.689 303.432 403.869 303.428 404.029 303.428H405.889V305H399.949ZM410.481 296.96C410.905 296.96 411.297 297.016 411.657 297.128C412.025 297.24 412.345 297.424 412.617 297.68C412.889 297.936 413.093 298.28 413.229 298.712L411.549 299.504C411.469 299.224 411.329 299.004 411.129 298.844C410.937 298.676 410.677 298.592 410.349 298.592C410.125 298.592 409.917 298.648 409.725 298.76C409.541 298.864 409.381 299.016 409.245 299.216C409.109 299.416 409.005 299.66 408.933 299.948C408.869 300.236 408.837 300.56 408.837 300.92C408.837 300.944 408.837 300.972 408.837 301.004C408.837 301.028 408.837 301.064 408.837 301.112L408.861 301.184C408.957 300.944 409.105 300.744 409.305 300.584C409.513 300.416 409.749 300.288 410.013 300.2C410.277 300.112 410.541 300.068 410.805 300.068C411.293 300.068 411.729 300.164 412.113 300.356C412.497 300.548 412.797 300.824 413.013 301.184C413.237 301.536 413.349 301.964 413.349 302.468C413.349 303.012 413.225 303.484 412.977 303.884C412.729 304.276 412.385 304.58 411.945 304.796C411.505 305.012 410.981 305.12 410.373 305.12C409.693 305.12 409.093 304.972 408.573 304.676C408.061 304.372 407.661 303.924 407.373 303.332C407.093 302.732 406.953 301.992 406.953 301.112C406.953 300.168 407.109 299.392 407.421 298.784C407.733 298.176 408.153 297.72 408.681 297.416C409.217 297.112 409.817 296.96 410.481 296.96ZM410.337 301.46C410.129 301.46 409.937 301.504 409.761 301.592C409.593 301.672 409.457 301.792 409.353 301.952C409.257 302.112 409.209 302.3 409.209 302.516C409.209 302.724 409.261 302.908 409.365 303.068C409.469 303.228 409.605 303.352 409.773 303.44C409.941 303.528 410.129 303.572 410.337 303.572C410.697 303.572 410.973 303.48 411.165 303.296C411.365 303.112 411.465 302.852 411.465 302.516C411.465 302.292 411.421 302.104 411.333 301.952C411.245 301.792 411.117 301.672 410.949 301.592C410.789 301.504 410.585 301.46 410.337 301.46Z" fill="white"/>
<circle cx="276" cy="269" r="15" fill="#5597FF"/>
<path d="M271.347 273V268.44C271.347 268.232 271.347 268.02 271.347 267.804C271.355 267.58 271.359 267.352 271.359 267.12C271.095 267.36 270.803 267.572 270.483 267.756C270.163 267.932 269.827 268.052 269.475 268.116L269.283 266.412C269.491 266.396 269.711 266.344 269.943 266.256C270.183 266.168 270.419 266.06 270.651 265.932C270.883 265.804 271.091 265.668 271.275 265.524C271.459 265.372 271.599 265.224 271.695 265.08H273.339V273H271.347ZM278.087 273.12C277.007 273.12 276.187 272.776 275.627 272.088C275.075 271.4 274.799 270.384 274.799 269.04C274.799 267.696 275.075 266.68 275.627 265.992C276.187 265.304 277.007 264.96 278.087 264.96C279.167 264.96 279.983 265.304 280.535 265.992C281.095 266.68 281.375 267.696 281.375 269.04C281.375 270.384 281.095 271.4 280.535 272.088C279.983 272.776 279.167 273.12 278.087 273.12ZM278.087 271.512C278.383 271.512 278.623 271.432 278.807 271.272C278.991 271.104 279.123 270.84 279.203 270.48C279.291 270.112 279.335 269.632 279.335 269.04C279.335 268.448 279.291 267.972 279.203 267.612C279.123 267.244 278.991 266.98 278.807 266.82C278.623 266.652 278.383 266.568 278.087 266.568C277.799 266.568 277.559 266.652 277.367 266.82C277.183 266.98 277.047 267.244 276.959 267.612C276.879 267.972 276.839 268.448 276.839 269.04C276.839 269.632 276.879 270.112 276.959 270.48C277.047 270.84 277.183 271.104 277.367 271.272C277.559 271.432 277.799 271.512 278.087 271.512Z" fill="white"/>
<circle cx="338" cy="308" r="15" fill="#5597FF"/>
<path d="M334.209 303.96C334.633 303.96 335.025 304.016 335.385 304.128C335.753 304.24 336.073 304.424 336.345 304.68C336.617 304.936 336.821 305.28 336.957 305.712L335.277 306.504C335.197 306.224 335.057 306.004 334.857 305.844C334.665 305.676 334.405 305.592 334.077 305.592C333.853 305.592 333.645 305.648 333.453 305.76C333.269 305.864 333.109 306.016 332.973 306.216C332.837 306.416 332.733 306.66 332.661 306.948C332.597 307.236 332.565 307.56 332.565 307.92C332.565 307.944 332.565 307.972 332.565 308.004C332.565 308.028 332.565 308.064 332.565 308.112L332.589 308.184C332.685 307.944 332.833 307.744 333.033 307.584C333.241 307.416 333.477 307.288 333.741 307.2C334.005 307.112 334.269 307.068 334.533 307.068C335.021 307.068 335.457 307.164 335.841 307.356C336.225 307.548 336.525 307.824 336.741 308.184C336.965 308.536 337.077 308.964 337.077 309.468C337.077 310.012 336.953 310.484 336.705 310.884C336.457 311.276 336.113 311.58 335.673 311.796C335.233 312.012 334.709 312.12 334.101 312.12C333.421 312.12 332.821 311.972 332.301 311.676C331.789 311.372 331.389 310.924 331.101 310.332C330.821 309.732 330.681 308.992 330.681 308.112C330.681 307.168 330.837 306.392 331.149 305.784C331.461 305.176 331.881 304.72 332.409 304.416C332.945 304.112 333.545 303.96 334.209 303.96ZM334.065 308.46C333.857 308.46 333.665 308.504 333.489 308.592C333.321 308.672 333.185 308.792 333.081 308.952C332.985 309.112 332.937 309.3 332.937 309.516C332.937 309.724 332.989 309.908 333.093 310.068C333.197 310.228 333.333 310.352 333.501 310.44C333.669 310.528 333.857 310.572 334.065 310.572C334.425 310.572 334.701 310.48 334.893 310.296C335.093 310.112 335.193 309.852 335.193 309.516C335.193 309.292 335.149 309.104 335.061 308.952C334.973 308.792 334.845 308.672 334.677 308.592C334.517 308.504 334.313 308.46 334.065 308.46ZM341.604 303.96C342.028 303.96 342.42 304.016 342.78 304.128C343.148 304.24 343.468 304.424 343.74 304.68C344.012 304.936 344.216 305.28 344.352 305.712L342.672 306.504C342.592 306.224 342.452 306.004 342.252 305.844C342.06 305.676 341.8 305.592 341.472 305.592C341.248 305.592 341.04 305.648 340.848 305.76C340.664 305.864 340.504 306.016 340.368 306.216C340.232 306.416 340.128 306.66 340.056 306.948C339.992 307.236 339.96 307.56 339.96 307.92C339.96 307.944 339.96 307.972 339.96 308.004C339.96 308.028 339.96 308.064 339.96 308.112L339.984 308.184C340.08 307.944 340.228 307.744 340.428 307.584C340.636 307.416 340.872 307.288 341.136 307.2C341.4 307.112 341.664 307.068 341.928 307.068C342.416 307.068 342.852 307.164 343.236 307.356C343.62 307.548 343.92 307.824 344.136 308.184C344.36 308.536 344.472 308.964 344.472 309.468C344.472 310.012 344.348 310.484 344.1 310.884C343.852 311.276 343.508 311.58 343.068 311.796C342.628 312.012 342.104 312.12 341.496 312.12C340.816 312.12 340.216 311.972 339.696 311.676C339.184 311.372 338.784 310.924 338.496 310.332C338.216 309.732 338.076 308.992 338.076 308.112C338.076 307.168 338.232 306.392 338.544 305.784C338.856 305.176 339.276 304.72 339.804 304.416C340.34 304.112 340.94 303.96 341.604 303.96ZM341.46 308.46C341.252 308.46 341.06 308.504 340.884 308.592C340.716 308.672 340.58 308.792 340.476 308.952C340.38 309.112 340.332 309.3 340.332 309.516C340.332 309.724 340.384 309.908 340.488 310.068C340.592 310.228 340.728 310.352 340.896 310.44C341.064 310.528 341.252 310.572 341.46 310.572C341.82 310.572 342.096 310.48 342.288 310.296C342.488 310.112 342.588 309.852 342.588 309.516C342.588 309.292 342.544 309.104 342.456 308.952C342.368 308.792 342.24 308.672 342.072 308.592C341.912 308.504 341.708 308.46 341.46 308.46Z" fill="white"/>
<circle cx="141" cy="232" r="15" fill="#5597FF"/>
<path d="M136.634 236V231.44C136.634 231.232 136.634 231.02 136.634 230.804C136.642 230.58 136.646 230.352 136.646 230.12C136.382 230.36 136.09 230.572 135.77 230.756C135.45 230.932 135.114 231.052 134.762 231.116L134.57 229.412C134.778 229.396 134.998 229.344 135.23 229.256C135.47 229.168 135.706 229.06 135.938 228.932C136.17 228.804 136.378 228.668 136.562 228.524C136.746 228.372 136.886 228.224 136.982 228.08H138.626V236H136.634ZM140.23 236V234.68C140.91 234.256 141.49 233.86 141.97 233.492C142.45 233.124 142.838 232.776 143.134 232.448C143.438 232.12 143.662 231.808 143.806 231.512C143.95 231.216 144.022 230.928 144.022 230.648C144.022 230.344 143.93 230.092 143.746 229.892C143.57 229.684 143.306 229.58 142.954 229.58C142.578 229.58 142.286 229.72 142.078 230C141.87 230.272 141.758 230.672 141.742 231.2L139.978 230.66C139.994 230.068 140.134 229.572 140.398 229.172C140.67 228.772 141.038 228.472 141.502 228.272C141.966 228.064 142.494 227.96 143.086 227.96C143.606 227.96 144.054 228.036 144.43 228.188C144.814 228.332 145.126 228.528 145.366 228.776C145.606 229.016 145.782 229.288 145.894 229.592C146.014 229.888 146.074 230.192 146.074 230.504C146.074 231.016 145.942 231.496 145.678 231.944C145.414 232.384 145.03 232.812 144.526 233.228C144.03 233.636 143.426 234.048 142.714 234.464V234.476C142.85 234.468 143.01 234.46 143.194 234.452C143.378 234.444 143.57 234.44 143.77 234.44C143.97 234.432 144.15 234.428 144.31 234.428H146.17V236H140.23Z" fill="white"/>
</svg>
