<svg width="108" height="108" viewBox="0 0 108 108" fill="none" xmlns="http://www.w3.org/2000/svg">
<g filter="url(#filter0_d_4820_27307)">
<circle cx="54" cy="50" r="26" fill="#00BB4C"/>
<circle cx="54" cy="50" r="26" stroke="#D1FAE5" stroke-width="5"/>
</g>
<g clip-path="url(#clip0_4820_27307)">
<path d="M62.3851 43.8502L51.1572 55.0773C51.0817 55.1531 50.992 55.2132 50.8932 55.2543C50.7944 55.2953 50.6885 55.3164 50.5815 55.3164C50.4745 55.3164 50.3686 55.2953 50.2698 55.2543C50.1711 55.2132 50.0813 55.1531 50.0059 55.0773L45.6639 50.7313C45.5884 50.6555 45.4987 50.5953 45.3999 50.5543C45.3011 50.5133 45.1952 50.4921 45.0882 50.4921C44.9812 50.4921 44.8753 50.5133 44.7765 50.5543C44.6777 50.5953 44.588 50.6555 44.5125 50.7313V50.7313C44.4368 50.8067 44.3766 50.8965 44.3356 50.9952C44.2946 51.094 44.2734 51.1999 44.2734 51.3069C44.2734 51.4139 44.2946 51.5198 44.3356 51.6186C44.3766 51.7174 44.4368 51.8071 44.5125 51.8826L48.8562 56.2254C49.3144 56.6827 49.9353 56.9396 50.5827 56.9396C51.2301 56.9396 51.8511 56.6827 52.3093 56.2254L63.5364 45.0007C63.6121 44.9252 63.6721 44.8356 63.7131 44.7368C63.754 44.6381 63.7751 44.5323 63.7751 44.4254C63.7751 44.3186 63.754 44.2128 63.7131 44.114C63.6721 44.0153 63.6121 43.9257 63.5364 43.8502C63.4609 43.7744 63.3712 43.7143 63.2724 43.6732C63.1737 43.6322 63.0677 43.6111 62.9608 43.6111C62.8538 43.6111 62.7479 43.6322 62.6491 43.6732C62.5503 43.7143 62.4606 43.7744 62.3851 43.8502Z" fill="white"/>
</g>
<defs>
<filter id="filter0_d_4820_27307" x="0.5" y="0.5" width="107" height="107" filterUnits="userSpaceOnUse" color-interpolation-filters="sRGB">
<feFlood flood-opacity="0" result="BackgroundImageFix"/>
<feColorMatrix in="SourceAlpha" type="matrix" values="0 0 0 0 0 0 0 0 0 0 0 0 0 0 0 0 0 0 127 0" result="hardAlpha"/>
<feOffset dy="4"/>
<feGaussianBlur stdDeviation="12.5"/>
<feColorMatrix type="matrix" values="0 0 0 0 0 0 0 0 0 0 0 0 0 0 0 0 0 0 0.08 0"/>
<feBlend mode="normal" in2="BackgroundImageFix" result="effect1_dropShadow_4820_27307"/>
<feBlend mode="normal" in="SourceGraphic" in2="effect1_dropShadow_4820_27307" result="shape"/>
</filter>
<clipPath id="clip0_4820_27307">
<rect width="19.5" height="19.5" fill="white" transform="translate(44.25 40.25)"/>
</clipPath>
</defs>
</svg>
