<svg width="46" height="46" viewBox="0 0 46 46" fill="none" xmlns="http://www.w3.org/2000/svg">
<path fill-rule="evenodd" clip-rule="evenodd" d="M14.9452 7.11383C10.1877 7.11383 7.11381 10.376 7.11381 15.4086V30.5729C7.11381 31.9852 7.37596 33.2461 7.82458 34.3372C7.84396 34.3141 8.26672 33.7989 8.81813 33.1269C9.89531 31.8143 11.4634 29.9033 11.4744 29.8935C12.752 28.4351 15.1501 26.2603 18.2978 27.5766C18.9876 27.8626 19.6007 28.2544 20.1651 28.615C20.22 28.6502 20.2745 28.685 20.3286 28.7194C21.3864 29.4264 22.0086 29.7588 22.6547 29.7034C22.9224 29.6664 23.1735 29.5871 23.4117 29.4394C24.3101 28.8855 26.6392 25.5853 27.3367 24.597C27.439 24.4521 27.5061 24.3569 27.5286 24.3274C29.5409 21.7058 32.6424 21.0043 35.227 22.5551C35.5741 22.7618 38.0609 24.4991 38.8843 25.1969V15.4086C38.8843 10.376 35.8104 7.11383 31.0363 7.11383H14.9452ZM31.0358 4.53888C37.2703 4.53888 41.4592 8.8995 41.4592 15.409V30.5733C41.4592 30.7371 41.442 30.8906 41.4248 31.044C41.4128 31.1519 41.4007 31.2596 41.3946 31.3709C41.3906 31.4381 41.3887 31.5054 41.3868 31.5726C41.3842 31.6623 41.3817 31.752 41.3743 31.8417C41.3706 31.8767 41.3637 31.9104 41.3568 31.9441C41.3498 31.9778 41.3429 32.0115 41.3392 32.0466C41.2783 32.6263 41.1841 33.1801 41.0531 33.7173C41.0221 33.8516 40.9863 33.9811 40.9501 34.1118L40.9423 34.1401C40.7946 34.6607 40.6211 35.1573 40.4124 35.6318C40.3759 35.7116 40.3373 35.7894 40.2988 35.8671C40.2731 35.919 40.2474 35.9708 40.2223 36.0232C39.9971 36.4755 39.7534 36.9093 39.4709 37.3118C39.4186 37.3863 39.363 37.4561 39.3073 37.5261C39.2705 37.5723 39.2336 37.6185 39.1977 37.6663C38.9041 38.0466 38.5977 38.4103 38.2506 38.7407C38.1813 38.8066 38.1064 38.8669 38.0315 38.9272C37.9847 38.9649 37.9379 39.0026 37.8924 39.0416C37.5361 39.3481 37.1724 39.6417 36.7718 39.8927C36.6844 39.9477 36.5915 39.9937 36.499 40.0396C36.4391 40.0693 36.3794 40.099 36.3214 40.1309C35.9134 40.3561 35.5017 40.5758 35.0531 40.7457C34.9451 40.7867 34.8303 40.8163 34.7151 40.846C34.6333 40.8672 34.5513 40.8883 34.4715 40.9137C34.4316 40.926 34.3917 40.9384 34.3518 40.9508C33.9511 41.0755 33.5517 41.1998 33.1201 41.2737C32.8701 41.3175 32.6048 41.3343 32.3393 41.3511C32.2244 41.3584 32.1095 41.3657 31.9958 41.3752C31.8735 41.3843 31.7537 41.3991 31.6337 41.4138C31.4384 41.4379 31.2428 41.462 31.0358 41.462H14.9447C14.2506 41.462 13.5878 41.3918 12.9472 41.2866C12.9232 41.2829 12.9011 41.2792 12.8789 41.2755C10.3811 40.8453 8.30783 39.6398 6.8549 37.8213C6.84481 37.8213 6.84085 37.8145 6.83557 37.8055C6.83216 37.7996 6.8282 37.7928 6.82167 37.7863C5.36136 35.9475 4.53613 33.4755 4.53613 30.5733V15.409C4.53613 8.8995 8.72875 4.53888 14.9447 4.53888H31.0358ZM21.153 16.5661C21.153 19.0676 19.0599 21.1539 16.5465 21.1539C14.3372 21.1539 12.4535 19.5397 12.0313 17.4498C11.9616 17.1363 11.9222 16.8138 11.9222 16.4806C11.9222 13.9613 13.9687 11.9231 16.4982 11.9231C17.7862 11.9231 18.9526 12.4647 19.788 13.3289C20.627 14.1627 21.153 15.3118 21.153 16.5661Z" fill="#969696"/>
</svg>
