<svg width="96" height="96" viewBox="0 0 96 96" fill="none" xmlns="http://www.w3.org/2000/svg">
<circle cx="48" cy="48" r="48" fill="black"/>
<path fill-rule="evenodd" clip-rule="evenodd" d="M39.9452 32.1138C35.1877 32.1138 32.1138 35.376 32.1138 40.4086V55.5729C32.1138 56.9852 32.376 58.2461 32.8246 59.3372C32.844 59.3141 33.2667 58.7989 33.8181 58.1269C34.8953 56.8143 36.4634 54.9033 36.4744 54.8935C37.752 53.4351 40.1501 51.2603 43.2978 52.5766C43.9876 52.8626 44.6007 53.2544 45.1651 53.615C45.22 53.6502 45.2745 53.685 45.3286 53.7194C46.3864 54.4264 47.0086 54.7588 47.6547 54.7034C47.9224 54.6664 48.1735 54.5871 48.4117 54.4394C49.3101 53.8855 51.6392 50.5853 52.3367 49.597C52.439 49.4521 52.5061 49.3569 52.5286 49.3274C54.5409 46.7058 57.6424 46.0043 60.227 47.5551C60.5741 47.7618 63.0609 49.4991 63.8843 50.1969V40.4086C63.8843 35.376 60.8104 32.1138 56.0363 32.1138H39.9452ZM56.0358 29.5389C62.2703 29.5389 66.4592 33.8995 66.4592 40.409V55.5733C66.4592 55.7371 66.442 55.8906 66.4248 56.044C66.4128 56.1519 66.4007 56.2596 66.3946 56.3709C66.3906 56.4381 66.3887 56.5054 66.3868 56.5726C66.3842 56.6623 66.3817 56.752 66.3743 56.8417C66.3706 56.8767 66.3637 56.9104 66.3568 56.9441C66.3498 56.9778 66.3429 57.0115 66.3392 57.0466C66.2783 57.6263 66.1841 58.1801 66.0531 58.7173C66.0221 58.8516 65.9863 58.9811 65.9501 59.1118L65.9423 59.1401C65.7946 59.6607 65.6211 60.1573 65.4124 60.6318C65.3759 60.7116 65.3373 60.7894 65.2988 60.8671C65.2731 60.919 65.2474 60.9708 65.2223 61.0232C64.9971 61.4755 64.7534 61.9093 64.4709 62.3118C64.4186 62.3863 64.363 62.4561 64.3073 62.5261C64.2705 62.5723 64.2336 62.6185 64.1977 62.6663C63.9041 63.0466 63.5977 63.4103 63.2506 63.7407C63.1813 63.8066 63.1064 63.8669 63.0315 63.9272C62.9847 63.9649 62.9379 64.0026 62.8924 64.0416C62.5361 64.3481 62.1724 64.6417 61.7718 64.8927C61.6844 64.9477 61.5915 64.9937 61.499 65.0396C61.4391 65.0693 61.3794 65.099 61.3214 65.1309C60.9134 65.3561 60.5017 65.5758 60.0531 65.7457C59.9451 65.7867 59.8303 65.8163 59.7151 65.846C59.6333 65.8672 59.5513 65.8883 59.4715 65.9137C59.4316 65.926 59.3917 65.9384 59.3518 65.9508C58.9511 66.0755 58.5517 66.1998 58.1201 66.2737C57.8701 66.3175 57.6048 66.3343 57.3393 66.3511C57.2244 66.3584 57.1095 66.3657 56.9958 66.3752C56.8735 66.3843 56.7537 66.3991 56.6337 66.4138C56.4384 66.4379 56.2428 66.462 56.0358 66.462H39.9447C39.2506 66.462 38.5878 66.3918 37.9472 66.2866C37.9232 66.2829 37.9011 66.2792 37.8789 66.2755C35.3811 65.8453 33.3078 64.6398 31.8549 62.8213C31.8448 62.8213 31.8408 62.8145 31.8356 62.8055C31.8322 62.7996 31.8282 62.7928 31.8217 62.7863C30.3614 60.9475 29.5361 58.4755 29.5361 55.5733V40.409C29.5361 33.8995 33.7287 29.5389 39.9447 29.5389H56.0358ZM46.153 41.5661C46.153 44.0676 44.0599 46.1539 41.5465 46.1539C39.3372 46.1539 37.4535 44.5397 37.0313 42.4498C36.9616 42.1363 36.9222 41.8138 36.9222 41.4806C36.9222 38.9613 38.9687 36.9231 41.4982 36.9231C42.7862 36.9231 43.9526 37.4647 44.788 38.3289C45.627 39.1627 46.153 40.3118 46.153 41.5661Z" fill="#969696"/>
</svg>
